<?xml version="1.0" encoding="UTF-8"?>
<svg id="Layer_1" xmlns="http://www.w3.org/2000/svg" version="1.1" viewBox="0 0 841.89 297.64">
  <!-- Generator: Adobe Illustrator 30.1.0, SVG Export Plug-In . SVG Version: 2.1.1 Build 136)  -->
  <defs>
    <style>
      .st0 {
        fill: #53565c;
      }

      .st1 {
        fill: #e10a01;
      }
    </style>
  </defs>
  <path class="st0" d="M474.87,155.67h-25.51l-10.14-24.87h-46.9l-10.14,24.87h-24.88l47.53-111.7h22.5l47.53,111.7h.01ZM415.77,73.28l-14.74,35.97h29.47l-14.73-35.97Z"/>
  <path class="st0" d="M547.44,130.63h-.64l-30.89-46.9v71.93h-23.93V44.76h26.3l29.15,46.9,29.15-46.9h26.3v110.91h-24.24v-72.41l-31.21,47.37h.01Z"/>
  <path class="st0" d="M713.18,66.46h-59.42v22.5h52.29v21.71h-52.29v23.29h60.21v21.71h-84.45V44.76h83.66v21.71h0Z"/>
  <path class="st0" d="M778.93,155.67h-43.26V44.76h43.26c34.86,0,58.94,23.93,58.94,55.3s-24.08,55.61-58.94,55.61ZM778.93,66.78h-18.86v66.87h18.86c19.96,0,33.43-13.47,33.43-33.28s-13.47-33.59-33.43-33.59Z"/>
  <path class="st1" d="M180.74,121.42l-18.42-37.51c18.94-23.92,48.21-39.29,81.09-39.29,28.89,0,55,11.85,73.76,30.95l-.29.23c1.88,2.8,2.98,6.17,2.98,9.79,0,9.72-7.87,17.59-17.59,17.59-4.98,0-9.47-2.08-12.67-5.41l-.15.12c-12.12-11.12-28.29-17.92-46.04-17.92-28.15,0-52.3,17.09-62.67,41.45h0ZM302.27,192.86c-4.7,0-8.97,1.86-12.12,4.87-.02-.02-.04-.04-.06-.06-12.19,11.48-28.6,18.53-46.67,18.53-23.57,0-44.33-11.97-56.56-30.16h0v-.02c-1.76-2.61-3.34-5.35-4.72-8.2h0c-.16-.35-.32-.69-.48-1.04l-50.36-106.58-6.7-13c-6.26-10.99-23.81-10.99-30.07,0L5.04,230.7c-5.72,10.05,2.43,21.94,15.04,21.94h8.07c6.35,0,12.16-3.18,15.03-8.24L109.54,111.53l40.33,80.76c16.58,35.02,52.22,59.24,93.54,59.24,27.87,0,53.16-11.04,71.76-28.97-.03-.03-.06-.06-.09-.1,2.96-3.15,4.78-7.37,4.78-12.02,0-9.72-7.87-17.59-17.59-17.59h0Z"/>
  <path class="st0" d="M211.21,179.87"/>
  <g>
    <path class="st0" d="M356.85,209.32v-.18c0-17.46,13.07-31.75,31.67-31.75,11.32,0,18.16,3.95,24.03,9.56l-6.93,7.98c-4.91-4.56-10.17-7.63-17.19-7.63-11.75,0-20.26,9.65-20.26,21.66v.18c0,12.01,8.51,21.84,20.26,21.84,7.55,0,12.37-3.07,17.63-7.98l6.93,7.02c-6.4,6.67-13.42,10.88-24.91,10.88-17.89,0-31.23-13.95-31.23-31.58Z"/>
    <path class="st0" d="M451.4,239.84v-5.7c-3.16,3.77-7.98,6.67-15,6.67-8.77,0-16.49-5-16.49-14.3v-.18c0-10.26,7.98-15.17,18.77-15.17,5.61,0,9.21.79,12.81,1.93v-.88c0-6.4-4.03-9.91-11.4-9.91-5.17,0-9.03,1.14-13.24,2.9l-2.89-8.51c5.09-2.28,10.09-3.86,17.63-3.86,13.68,0,20.35,7.19,20.35,19.56v27.45h-10.54ZM451.66,220.45c-2.72-1.05-6.49-1.84-10.61-1.84-6.66,0-10.61,2.72-10.61,7.19v.18c0,4.39,3.95,6.84,8.94,6.84,7.02,0,12.28-3.95,12.28-9.74v-2.63h0Z"/>
    <path class="st0" d="M474.55,193.53h10.61v7.72c3.42-4.83,8.24-8.68,15.7-8.68,10.96,0,21.58,8.68,21.58,24.03v.17c0,15.35-10.53,24.04-21.58,24.04-7.63,0-12.46-3.86-15.7-8.16v21.22h-10.61v-60.34h0ZM511.65,216.77v-.17c0-8.95-6.05-14.82-13.24-14.82s-13.51,5.97-13.51,14.82v.17c0,8.95,6.31,14.82,13.51,14.82s13.24-5.7,13.24-14.82h0Z"/>
    <path class="st0" d="M533.49,176.33h11.4v10.09h-11.4v-10.09ZM533.93,193.53h10.61v46.31h-10.61v-46.31Z"/>
    <path class="st0" d="M560.59,227.03v-24.38h-5.88v-9.12h5.88v-12.72h10.61v12.72h12.46v9.12h-12.46v22.72c0,4.12,2.1,5.79,5.7,5.79,2.37,0,4.47-.53,6.58-1.58v8.68c-2.63,1.49-5.61,2.37-9.56,2.37-7.81,0-13.33-3.42-13.33-13.6h0Z"/>
    <path class="st0" d="M622.68,239.84v-5.7c-3.16,3.77-7.98,6.67-15,6.67-8.77,0-16.49-5-16.49-14.3v-.18c0-10.26,7.98-15.17,18.77-15.17,5.62,0,9.22.79,12.81,1.93v-.88c0-6.4-4.03-9.91-11.4-9.91-5.18,0-9.03,1.14-13.25,2.9l-2.89-8.51c5.08-2.28,10.09-3.86,17.63-3.86,13.68,0,20.35,7.19,20.35,19.56v27.45h-10.53,0ZM622.95,220.45c-2.72-1.05-6.49-1.84-10.62-1.84-6.67,0-10.61,2.72-10.61,7.19v.18c0,4.39,3.94,6.84,8.94,6.84,7.02,0,12.28-3.95,12.28-9.74v-2.63h0Z"/>
    <path class="st0" d="M646.45,175.81h10.61v64.03h-10.61v-64.03Z"/>
    <path class="st0" d="M698.46,178.44h27.54c7.02,0,12.54,1.93,16.05,5.44,2.72,2.72,4.12,6.05,4.12,10.17v.18c0,7.37-4.21,11.31-8.77,13.68,7.19,2.46,12.19,6.58,12.19,14.91v.18c0,10.96-9.03,16.84-22.71,16.84h-28.42v-61.4h0ZM723.81,204.31c6.93,0,11.58-2.72,11.58-8.33v-.18c0-4.82-3.86-7.81-10.79-7.81h-15.52v16.32h14.73ZM726.96,230.28c7.37,0,11.84-2.9,11.84-8.42v-.18c0-5.17-4.12-8.24-12.63-8.24h-17.11v16.84h17.9Z"/>
    <path class="st0" d="M759.85,227.82h11.67v12.02h-11.67v-12.02Z"/>
    <path class="st0" d="M769.58,178.44h11.93l18.51,47.19,18.42-47.19h11.67l-25.53,61.84h-9.47l-25.52-61.84h0Z"/>
    <path class="st0" d="M828.17,227.82h11.67v12.02h-11.67v-12.02Z"/>
  </g>
</svg>