<?xml version="1.0" encoding="UTF-8"?>
<svg id="Layer_1" xmlns="http://www.w3.org/2000/svg" width="506.88mm" height="186.91mm" version="1.1" viewBox="0 0 1436.83 529.83">
  <!-- Generator: Adobe Illustrator 30.1.0, SVG Export Plug-In . SVG Version: 2.1.1 Build 136)  -->
  <defs>
    <style>
      .st0 {
        fill: #fff;
      }
    </style>
  </defs>
  <g>
    <path class="st0" d="M628.67,115.02c11.65-11.29,25.23-20.16,40.33-26.36,15.66-6.41,32.29-9.67,49.42-9.67s33.75,3.26,49.4,9.67c15.12,6.2,28.7,15.07,40.35,26.36,11.65,11.3,20.8,24.46,27.19,39.1.96,2.22,1.87,4.46,2.7,6.7V0h-239.28v160.84c.84-2.26,1.73-4.5,2.69-6.72,6.39-14.65,15.54-27.8,27.2-39.1"/>
    <path class="st0" d="M830.78,156c-6.15-14.08-14.94-26.72-26.14-37.57-11.2-10.85-24.24-19.38-38.76-25.33-15.04-6.16-31.01-9.29-47.47-9.29s-32.43,3.13-47.47,9.29c-14.53,5.95-27.57,14.48-38.77,25.33-11.2,10.85-20,23.49-26.14,37.57-6.36,14.56-9.59,30.05-9.59,46.01s3.23,31.43,9.59,46.01c6.14,14.07,14.93,26.7,26.14,37.56,11.2,10.86,24.24,19.36,38.77,25.33,15.04,6.16,31,9.3,47.47,9.3s32.43-3.13,47.47-9.3c14.51-5.97,27.56-14.48,38.76-25.33,11.2-10.86,19.99-23.5,26.14-37.56,6.35-14.58,9.59-30.05,9.59-46.01s-3.23-31.45-9.59-46.01M831.68,191.11c-.37,1.29-.66,3.95-.85,5.49h-1.44l-.19-3.08c-1.82-1.84-4.14-2.47-6.67-2.47-6.14,0-9.39,4.23-9.39,9.9,0,6.56,3.91,11.29,10.91,11.29,2.18,0,5.18-.75,7.07-1.83l.45.44-.82,1.76c-2.55,1.51-5.55,1.97-8.5,1.97-8.44,0-14.66-4.59-14.66-13.16s6.92-12.37,14.81-12.37c3.03,0,5.51.24,9.07,1.68l.22.39ZM706.66,89.2c-14.81,4.76-25.5,18.3-25.5,34.26,0,19.94,16.68,36.1,37.26,36.1s37.25-16.16,37.25-36.1c0-15.96-10.7-29.5-25.51-34.28,45.75,4.45,83.81,34.53,98.6,75.15-74.62,20.56-146.06,20.56-220.69,0,14.8-40.61,52.86-70.69,98.59-75.14M797.29,212.02c.15.28.56.42,1.52.51l1.37.1v1.43c-1.52-.04-3.55-.11-5.73-.11s-4.25.07-5.78.11v-1.43l1.37-.1c.96-.09,1.36-.23,1.52-.51.22-.44.26-1.4.26-2.9v-14.63c0-1.5-.04-2.47-.26-2.9-.15-.29-.55-.44-1.52-.5l-1.37-.1v-1.44c1.53.03,3.56.11,5.78.11s4.21-.07,5.73-.11v1.44l-1.37.1c-.96.06-1.37.22-1.52.5-.22.43-.26,1.4-.26,2.9v14.63c0,1.5.04,2.47.26,2.9M773.39,212.02c.14.28.55.42,1.52.51l1.37.1v1.43c-1.52-.04-3.56-.11-5.74-.11s-4.24.07-5.77.11v-1.43l1.37-.1c.96-.09,1.36-.23,1.51-.51.23-.44.26-1.4.26-2.9v-17.37h-4.32c-1.01,0-2.04,0-2.3.33-.14.18-.28.47-.32.86l-.19,2.47h-1.48c-.07-2.32-.19-3.98-.49-5.69l.23-.18c3.89.03,7.73.11,11.48.11s7.61-.07,11.5-.11l.23.18c-.3,1.71-.41,3.37-.48,5.69h-1.49l-.19-2.47c-.04-.38-.18-.68-.33-.86-.27-.33-1.3-.33-2.3-.33h-4.34v17.37c0,1.5.04,2.47.27,2.9M749.52,214.39l-.26.14-3.03-.47c-1.52-1.65-3.08-3.33-4.51-4.99l-12-13.98h-.07v14.02c0,1.5.03,2.47.26,2.9.19.36.55.54,1.52.61l1.37.1v1.33c-1.41-.04-2.81-.11-4.22-.11s-2.85.07-4.25.11v-1.33l1.37-.1c.96-.07,1.34-.25,1.52-.61.22-.44.25-1.4.25-2.9v-14.63c0-1.5-.04-2.47-.25-2.9-.18-.37-.56-.54-1.52-.61l-1.37-.11v-1.33c1.48.03,2.96.11,4.44.11,1.04,0,2.07-.07,3.11-.11,1.26,1.58,2.49,3.27,3.81,4.76l11.55,13.07v-12.88c0-1.5-.03-2.47-.27-2.9-.18-.37-.55-.54-1.51-.61l-1.36-.11v-1.33c1.4.03,2.84.11,4.24.11s2.81-.07,4.22-.11v1.33l-1.37.11c-.96.07-1.32.24-1.51.61-.24.43-.27,1.4-.27,2.9v16.29c0,1.25.08,2.53.12,3.62M708.87,210.65l-1.66-4.09h-9.3l-1.55,4.03c-.52,1.36.22,2.01.89,2.04l1.85.1v1.33c-1.78-.04-3.11-.11-4.19-.11s-2.39.07-4.17.11v-1.33l1.11-.1c.96-.1,1.62-1.11,2.07-2.15l6.7-15.71.96-2.47.58-1.47.56-1.47h2.63l9.58,21.69c.4.9.89,1.43,2.03,1.58l.9.1v1.33c-2.49-.04-4.29-.11-5.73-.11s-3.3.07-5.75.11v-1.33l1.98-.1c.58-.03.99-.83.51-1.98M667.2,191.58c-.14-.29-.55-.44-1.52-.5l-1.36-.1v-1.44c1.52.03,3.56.11,5.77.11s4.22-.07,5.73-.11v1.44l-1.37.1c-.96.06-1.37.22-1.53.5-.22.43-.26,1.4-.26,2.9v17.39c1.56.07,3.15.11,4.74.11,1.7,0,4.44-.32,4.51-.62l.86-3.66h1.44l-.42,5.95-.17.28c-2.41.18-6.7.18-9.11.11-1.52-.04-3.04-.11-4.55-.11s-3.07.07-4.44.11v-.82l1.18-.65c.6-.33.75-.94.75-2.05v-16.06c0-1.5-.04-2.47-.27-2.9M649.03,212.02c.14.28.56.42,1.52.51l1.36.1v1.43c-1.51-.04-3.55-.11-5.74-.11s-4.24.07-5.76.11v-1.43l1.37-.1c.97-.09,1.37-.23,1.52-.51.22-.44.26-1.4.26-2.9v-17.37h-4.34c-1,0-2.03,0-2.3.33-.14.18-.29.47-.33.86l-.18,2.47h-1.48c-.07-2.32-.18-3.98-.48-5.69l.22-.18c3.89.03,7.74.11,11.47.11s7.63-.07,11.52-.11l.22.18c-.3,1.71-.4,3.37-.49,5.69h-1.47l-.19-2.47c-.04-.38-.18-.68-.34-.86-.26-.33-1.28-.33-2.29-.33h-4.33v17.37c0,1.5.04,2.47.27,2.9M623.09,210.65l-1.67-4.09h-9.29l-1.55,4.03c-.51,1.36.22,2.01.89,2.04l1.84.1v1.33c-1.78-.04-3.11-.11-4.19-.11s-2.39.07-4.17.11v-1.33l1.1-.1c.96-.1,1.63-1.11,2.07-2.15l6.71-15.71.96-2.47.59-1.47.56-1.47h2.62l9.59,21.69c.4.9.89,1.43,2.04,1.58l.89.1v1.33c-2.47-.04-4.29-.11-5.74-.11s-3.29.07-5.73.11v-1.33l1.95-.1c.59-.03,1-.83.52-1.98M718.42,315.39c-51.14,0-94.7-31.95-110.57-76.33,74.77-20.63,146.35-20.64,221.14,0-15.88,44.38-59.45,76.33-110.57,76.33"/>
    <polygon class="st0" points="698.81 204.56 706.36 204.56 702.52 195.45 698.81 204.56"/>
    <polygon class="st0" points="613.02 204.56 620.57 204.56 616.72 195.45 613.02 204.56"/>
  </g>
  <g>
    <path class="st0" d="M0,490.5v-6.12c4.11-.29,6.56-.55,7.34-.77.79-.23,1.46-.57,2.02-1.04.56-.47,1.13-1.2,1.71-2.21.59-1.02,2.32-4.77,5.21-11.26,1.32-3.04,3.85-9.07,7.62-18.07l19.86-47.53,6.7-16.75h10.82l34.03,77.03,4.72,10.12,3.04,6.78c.51.89.99,1.53,1.44,1.92.46.4.98.7,1.57.89.58.2,2.07.37,4.45.52.76.1,1.87.22,3.35.37v6.12l-21.16-.44-26.73.44v-6.12c6.14-.24,9.6-.58,10.39-1,.78-.41,1.18-1.11,1.18-2.1,0-1.22-.58-3.25-1.75-6.04l-6.55-16.24H30.14l-3.35,8.85c-2.54,6.79-3.81,11.02-3.81,12.69,0,1.18.4,2.01,1.22,2.51,1.23.68,4.85,1.12,10.89,1.33v6.12l-17.58-.44-17.51.44ZM33.64,450.58c4.77.16,10.18.22,16.22.22s11.06-.06,15.68-.22l-16.29-38.08-15.61,38.08Z"/>
    <path class="st0" d="M121.05,434.35v-3.32l6.85-4.21c1.12-.68,2.19-1.42,3.2-2.21v-9.9c0-3.54-.2-7.91-.61-13.13,4.93-1.57,8.12-2.63,9.6-3.17.25-.1,3.47-1.55,9.66-4.36l1.98,1.48-.76,7.67-.53,8.48-.69,12.92h2.52c6.75,0,11.85-.26,15.3-.75l-1.3,9.96c-.6.1-1.17.15-1.67.15l-7.46-.15h-7.39v24.65c0,7.57.08,12.05.23,13.42.2,2.31,1.05,4.13,2.55,5.43,1.5,1.3,3.67,1.96,6.51,1.96,1.73.04,3.11.01,4.15-.11,1.04-.12,2.37-.36,4-.7l1.22,3.03-2.74,2.65c-2.23,2.22-4.19,4.16-5.87,5.84-1.98.84-3.74,1.39-5.29,1.66-1.55.27-3.14.4-4.76.4-5.89,0-10.51-1.46-13.89-4.38-3.38-2.94-5.06-6.58-5.06-10.97l.3-24.36v-18.22h-2.05c-2.8,0-5.46.08-7.99.24"/>
    <path class="st0" d="M216.84,484.6v5.9c-6.36-.4-12.98-.59-19.88-.59s-14.67.19-23.3.59v-5.82c4.82-.15,7.74-.35,8.76-.59.76-.2,1.34-.48,1.71-.85.38-.37.65-.95.8-1.73.36-1.48.61-6.13.76-13.96.16-7.82.24-14.75.24-20.81v-24.34c0-7.73-.19-14.78-.53-21.19-.21-3.44-.47-5.48-.77-6.12-.2-.35-.48-.62-.84-.81-.61-.39-1.57-.68-2.89-.89-.76-.09-3.05-.22-6.86-.36v-5.46c6.3-.63,11.33-1.34,15.08-2.1,3.76-.76,8.81-2.1,15.15-4.02l1.6.89-.61,14.9c-.26,8.37-.4,18.62-.45,30.77v18.89c0,7.12.06,12.48.14,16.01.2,8.81.36,14.14.47,15.98.09,1.84.27,3.02.53,3.51.15.34.4.64.76.89.45.35,1.25.62,2.35.81.46.09,3.04.27,7.78.51"/>
    <path class="st0" d="M295.77,484.98v5.53c-5.84-.24-11.01-.37-15.53-.37-4.25,0-8.4.13-12.41.37l-.68-.81.68-9.66c-1.82,1.13-7.21,5.01-16.14,11.66-2.29.49-4.47.73-6.56.73-5.52,0-9.85-1.57-12.98-4.73-3.13-3.15-4.68-7.67-4.68-13.57,0-3.98.7-7.25,2.1-9.82,1.38-2.55,2.89-4.43,4.48-5.65,1.61-1.19,4.08-2.37,7.43-3.5,8.02-2.76,16.79-4.92,26.34-6.5.11-5.85-1.14-10.31-3.74-13.35-2.63-3.05-6.65-4.57-12.02-4.57-2.19,0-4.27.27-6.25.81-.86.24-1.87.73-3.04,1.47l-3.19,7.46-5.19-1.1.46-9.52c3.75-2.46,7.33-4.6,10.73-6.42,3.4-1.82,5.78-2.92,7.15-3.32,1.87-.54,4.52-.81,7.92-.81,5.53,0,10.08.77,13.67,2.33,3.57,1.55,6.21,3.38,7.91,5.49,1.7,2.11,2.87,4.38,3.49,6.79.64,2.41.96,5.46.96,9.15,0,1.57-.13,5.68-.38,12.32-.14,4.43-.22,8.05-.22,10.85,0,8.76.25,14.07.77,15.94.2.89.6,1.47,1.21,1.78.81.39,3.38.74,7.69,1.04M267.84,454.86c-4.31.89-8.26,1.96-11.85,3.21-3.58,1.26-6.05,2.81-7.42,4.65-1.37,1.84-2.05,4.17-2.05,6.97,0,3.16.83,5.59,2.47,7.31,1.65,1.73,3.82,2.59,6.51,2.59,2.29,0,4.59-.65,6.9-1.92,2.3-1.29,4.12-2.9,5.44-4.87v-17.94Z"/>
    <path class="st0" d="M391.41,484.82v5.68c-6.92-.34-12.55-.52-16.91-.52-5.03,0-9.39.17-13.1.52l-1.37-1.33c.1-1.03.44-5.28,1-12.77l.37-12.1v-5.82c0-8.61-.33-14.27-1.02-16.97-.68-2.7-2.09-4.88-4.23-6.53-2.13-1.65-4.97-2.47-8.53-2.47s-6.5.82-8.83,2.47c-2.34,1.65-3.82,3.32-4.43,4.99-.35.98-.51,4.91-.45,11.81v12.39c0,3.58.1,7.99.3,13.21.05,2.31.26,3.83.61,4.58.26.54.59.93.98,1.17.61.4,1.81.77,3.58,1.11.61.1,2.75.29,6.41.59v5.68c-5.55-.19-12.31-.29-20.33-.29-9.29,0-16.5.1-21.63.29v-5.68c3.96,0,6.7-.27,8.23-.81.7-.24,1.24-.66,1.6-1.25.5-.94.78-2.71.84-5.32l.31-6.56c.05-1.38.08-3.62.08-6.72v-9.66c0-4.38-.16-9.69-.46-15.94-.15-3.16-.37-4.94-.64-5.35-.28-.43-.73-.72-1.34-.93-.96-.35-3.83-.6-8.6-.73v-5.68c9.24-1.52,15.3-2.66,18.2-3.4,2.89-.73,6.17-1.91,9.82-3.53l2.05.88v11.88l13.85-10.77c1.67-.63,3.09-1.07,4.23-1.29,1.15-.22,2.73-.33,4.76-.33,5.42,0,9.51.59,12.22,1.78,2.71,1.17,5.01,2.84,6.89,4.98,1.89,2.14,3.21,4.38,3.96,6.71.76,2.34,1.15,5.99,1.15,10.97,0,5.6-.06,9.17-.14,10.7-.06.59-.08,1.3-.08,2.14l.08,7.6c.04,8.31.18,13.46.41,15.43.23,1.96.68,3.22,1.37,3.79.68.57,2.2.93,4.54,1.08.85.04,2.28.17,4.26.36"/>
    <path class="st0" d="M398.1,434.35v-3.32l6.86-4.21c1.12-.68,2.18-1.42,3.19-2.21v-9.9c0-3.54-.2-7.91-.6-13.13,4.92-1.57,8.11-2.63,9.59-3.17.25-.1,3.47-1.55,9.67-4.36l1.98,1.48-.76,7.67-.54,8.48-.69,12.92h2.51c6.75,0,11.86-.26,15.3-.75l-1.29,9.96c-.61.1-1.17.15-1.67.15l-7.48-.15h-7.38v24.65c0,7.57.08,12.05.22,13.42.2,2.31,1.05,4.13,2.56,5.43,1.5,1.3,3.67,1.96,6.51,1.96,1.72.04,3.1.01,4.15-.11,1.04-.12,2.37-.36,3.99-.7l1.23,3.03-2.74,2.65c-2.23,2.22-4.19,4.16-5.87,5.84-1.98.84-3.75,1.39-5.29,1.66-1.56.27-3.14.4-4.76.4-5.89,0-10.52-1.46-13.89-4.38-3.38-2.94-5.07-6.58-5.07-10.97l.31-24.36v-18.22h-2.05c-2.79,0-5.46.08-8,.24"/>
    <path class="st0" d="M451.78,490.5v-5.46c5.69-.39,8.94-.82,9.74-1.29.81-.47,1.32-1.34,1.53-2.62.5-2.7.76-9.66.76-20.89,0-15.4-.23-24.15-.69-26.26-.2-.98-.54-1.62-.98-1.92-1.01-.65-4.47-.98-10.36-1.03v-5.61c7.67-.78,13.45-1.63,17.36-2.51,3.91-.89,8.16-2.24,12.79-4.06l1.82.95c-.61,7.68-.92,14.88-.92,21.62v25.09c0,8.56.21,13.63.61,15.21.2.88.61,1.47,1.23,1.77,1.37.64,4.69,1.05,9.97,1.25v5.76c-7.21-.19-15.05-.29-23.52-.29-7.31,0-13.76.1-19.35.29M472.64,383.66c3.24,0,6,1.11,8.27,3.31,2.25,2.22,3.38,4.87,3.38,7.98s-1.13,5.83-3.38,8.04c-2.27,2.22-5.02,3.32-8.27,3.32s-5.94-1.11-8.22-3.32c-2.29-2.22-3.43-4.9-3.43-8.04s1.13-5.76,3.39-7.98c2.26-2.2,5.01-3.31,8.26-3.31"/>
    <path class="st0" d="M564,480.76l-3.34,7.17c-4.37,2.11-7.91,3.5-10.62,4.16-2.72.67-5.98.99-9.79.99-8.32,0-15.08-1.57-20.25-4.72-5.19-3.15-9.11-7.65-11.81-13.5-1.93-4.14-2.88-9.64-2.88-16.53,0-5.16.5-9.39,1.51-12.68,1.03-3.3,2.46-6.21,4.35-8.71,1.26-1.68,2.97-3.25,5.09-4.73l11.73-7.15c3.96-2.46,6.67-3.93,8.15-4.43,2.43-.88,5.61-1.33,9.51-1.33,3.26,0,6.29.26,9.11.77,2.82.52,5.41,1.29,7.81,2.33l.76,1.25-1.9,12.03c-.16,1.07-.41,4.47-.76,10.18h-5.95c-.31-4.38-.68-7.63-1.15-9.74-1.06-1.68-2.71-3.05-4.94-4.1-2.23-1.06-4.97-1.59-8.22-1.59-3.87,0-6.94.7-9.22,2.06-2.29,1.38-3.96,3.7-5.02,6.93-1.08,3.26-1.61,7.19-1.61,11.82,0,6.2,1.09,11.74,3.29,16.64,2.18,4.9,5.05,8.49,8.64,10.77,3.58,2.28,7.98,3.43,13.2,3.43,2.38,0,4.64-.26,6.78-.78,2.13-.52,4.16-1.26,6.09-2.24l1.44,1.69Z"/>
    <path class="st0" d="M680.49,454.64h-6.09c-.14-6.15-.59-9.86-1.29-11.15-.36-.63-1.28-1.1-2.74-1.4-3.76-.64-9.69-.97-17.82-.97-1.17,0-3.19.03-6.09.08v8.18c0,11.66.14,19.85.41,24.55.28,4.69.68,7.44,1.18,8.22.36.54,1,.97,1.9,1.29.92.32,4.91.72,11.95,1.22v5.82l-29.84-.52c-4.32,0-11.14.16-20.49.52v-6.12c5.84-.1,9.22-.32,10.13-.67.45-.14.84-.41,1.14-.81.45-.59.81-1.87,1.06-3.83.16-1.13.36-4.69.61-10.67.25-5.98.37-10.27.37-12.87v-30.55c0-.68-.22-7.57-.68-20.66-.11-3.79-.39-6.47-.84-8.04-.16-.54-.4-.95-.72-1.22-.33-.27-1.05-.53-2.14-.77-1.09-.25-4.07-.52-8.95-.81v-6.2l27.03.45,36.63-.59c5.12,0,9.97.24,14.53.73l.69,1.03c-.57,2.81-1.05,6.38-1.45,10.7-.41,4.33-.64,8.12-.69,11.36h-6.24c0-1.17-.13-3.84-.38-7.96-.11-2.17-.26-3.47-.45-3.92-.16-.33-.39-.58-.69-.73-.9-.59-3.03-1.17-6.36-1.73-3.32-.57-7.22-.85-11.68-.85-.86,0-3.26.07-7.2.22-3.94.14-6.61.27-8.03.37-.56,4.91-.84,13.79-.84,26.64v10.32c6.51.2,10.89.3,13.18.3,6.59,0,10.76-.3,12.48-.89.65-.19,1.15-.76,1.44-1.69.47-1.24.74-4.04.84-8.42h6.63c-.36,8.37-.55,19.05-.55,32.03"/>
    <path class="st0" d="M699.91,455.67c0-8.36,1.46-15.29,4.41-20.78,2.94-5.47,7.35-9.61,13.25-12.4,5.89-2.77,12.74-4.16,20.55-4.16,11.73,0,20.65,2.98,26.77,8.93,6.11,5.95,9.17,14.68,9.17,26.18,0,6.65-.89,12.41-2.66,17.27-1.78,4.87-4.17,8.8-7.16,11.78-2.99,2.98-6.14,5.22-9.44,6.75-5.64,2.55-11.98,3.83-19.03,3.83-11.48,0-20.32-3.16-26.54-9.47-6.22-6.33-9.32-15.63-9.32-27.93M721,452.12c0,13.09,1.98,22.41,5.94,27.98,2.63,3.69,6.38,5.53,11.26,5.53,4.16,0,7.46-1.41,9.89-4.2,3.26-3.74,4.88-10.97,4.88-21.71,0-7.52-.65-13.98-1.94-19.37-1.3-5.39-3.2-9.14-5.71-11.25-2.51-2.12-5.55-3.17-9.1-3.17-3.04,0-5.7.77-7.99,2.32-2.29,1.55-4.07,4.16-5.33,7.82-1.27,3.66-1.9,9.01-1.9,16.04"/>
    <path class="st0" d="M828.5,484.82v5.68c-5.73-.24-12.13-.37-19.19-.37-7.87,0-16.04.13-24.52.37v-5.68c3.96,0,6.71-.27,8.23-.81.7-.24,1.23-.66,1.6-1.25.5-.94.78-2.71.84-5.32l.31-6.56c.05-1.38.07-3.62.07-6.72v-9.66c0-4.38-.14-9.69-.45-15.94-.15-3.16-.37-4.94-.64-5.35-.29-.43-.73-.72-1.34-.93-.96-.35-3.83-.59-8.6-.73v-5.68c9.24-1.52,15.3-2.66,18.2-3.4,2.88-.73,6.17-1.91,9.81-3.53l2.06.88-.14,14.91c3.3-3.3,5.84-6.02,7.61-8.18,2.64-3.06,4.63-5,5.94-5.84,1.82-1.19,4.24-1.77,7.23-1.77,1.88,0,3.58.3,5.11.88l-.47,10.48c-.14,5.71-.28,8.98-.38,9.82l-3.19.97c-1.26-1.64-2.49-2.76-3.66-3.4-1.87-1.03-3.94-1.55-6.17-1.55-2.99,0-5.57.9-7.72,2.69-2.15,1.79-3.43,3.62-3.84,5.49-.2,1.08-.31,5.25-.31,12.48v7.38l.16,10.04c.04,3.79.18,6.11.41,6.97.23.85.74,1.53,1.56,2.02.81.49,2.57.84,5.27,1.03l6.24.6Z"/>
    <path class="st0" d="M871.28,491.1c-.2-.65-.65-2.49-1.37-5.54-.41-1.66-1.04-4.01-1.9-7.01l-6.39-21.98c-2.7-9.2-4.42-15.05-5.19-17.57-1.82-5.85-3.11-9.29-3.86-10.33-.31-.44-.8-.76-1.45-.95-1.06-.4-3.71-.64-7.92-.73v-5.82c6.39.14,13.24.2,20.55.2s14.72-.07,21.62-.2v5.82c-5.42,0-8.67.3-9.73.89-.66.33-1,.93-1,1.77,0,.94.25,2.36.76,4.28l9.21,33.57,13.26-28.18,4.56-9.59,4.58-10.41h7.76l21.54,48.18,7.54-21.69c1.12-3.39,2.23-7.21,3.35-11.43.5-2.18.76-3.59.76-4.29,0-1.17-.39-1.92-1.17-2.24-.8-.32-3.95-.61-9.48-.85v-5.83c5.42.14,10.48.21,15.15.21s9.94-.07,16.14-.21v5.83c-3.6.19-5.53.32-5.78.36-.72.2-1.36.54-1.94,1-.59.47-1.05,1.02-1.41,1.66-.36.63-1.62,3.8-3.8,9.51-.87,2.22-2.37,6.3-4.49,12.25l-4.05,11.66-1.21,3.31c-.62,1.73-2.24,6.52-4.88,14.39l-3.04,9.96h-12.41c-4.83-11.22-7.62-17.68-8.38-19.41l-12.26-27.09c-4.41,8.85-7.69,15.59-9.82,20.18-2.13,4.6-4,8.75-5.62,12.43l-5.79,13.88h-12.42Z"/>
    <path class="st0" d="M1045.02,484.98v5.53c-5.84-.24-11.01-.37-15.53-.37-4.27,0-8.4.13-12.41.37l-.69-.81.69-9.66c-1.84,1.13-7.22,5.01-16.14,11.66-2.29.49-4.47.73-6.56.73-5.53,0-9.85-1.57-12.97-4.73-3.13-3.15-4.68-7.67-4.68-13.57,0-3.98.69-7.25,2.09-9.82,1.39-2.55,2.9-4.43,4.49-5.65,1.6-1.19,4.07-2.37,7.42-3.5,8.02-2.76,16.8-4.92,26.35-6.5.09-5.85-1.14-10.31-3.74-13.35-2.63-3.05-6.65-4.57-12.03-4.57-2.18,0-4.25.27-6.24.81-.86.24-1.89.73-3.04,1.47l-3.21,7.46-5.17-1.1.45-9.52c3.76-2.46,7.34-4.6,10.75-6.42,3.39-1.82,5.78-2.92,7.15-3.32,1.87-.54,4.52-.81,7.91-.81,5.53,0,10.09.77,13.67,2.33,3.58,1.55,6.22,3.38,7.92,5.49,1.7,2.11,2.86,4.38,3.49,6.79.64,2.41.96,5.46.96,9.15,0,1.57-.13,5.68-.38,12.32-.15,4.43-.22,8.05-.22,10.85,0,8.76.25,14.07.76,15.94.2.89.61,1.47,1.22,1.78.81.39,3.38.74,7.69,1.04M1017.09,454.86c-4.32.89-8.27,1.96-11.85,3.21-3.58,1.26-6.05,2.81-7.42,4.65-1.37,1.84-2.06,4.17-2.06,6.97,0,3.16.82,5.59,2.47,7.31,1.65,1.73,3.83,2.59,6.52,2.59,2.29,0,4.59-.65,6.89-1.92,2.31-1.29,4.12-2.9,5.45-4.87v-17.94h0Z"/>
    <path class="st0" d="M1097.03,484.82v5.68c-5.74-.24-12.14-.37-19.18-.37-7.88,0-16.04.13-24.52.37v-5.68c3.96,0,6.7-.27,8.23-.81.7-.24,1.23-.66,1.59-1.25.5-.94.78-2.71.84-5.32l.31-6.56c.04-1.38.07-3.62.07-6.72v-9.66c0-4.38-.15-9.69-.45-15.94-.15-3.16-.37-4.94-.65-5.35-.28-.43-.72-.72-1.33-.93-.96-.35-3.83-.59-8.6-.73v-5.68c9.24-1.52,15.3-2.66,18.2-3.4,2.89-.73,6.17-1.91,9.81-3.53l2.06.88-.15,14.91c3.3-3.3,5.84-6.02,7.61-8.18,2.64-3.06,4.61-5,5.94-5.84,1.82-1.19,4.23-1.77,7.23-1.77,1.87,0,3.57.3,5.09.88l-.46,10.48c-.15,5.71-.28,8.98-.38,9.82l-3.19.97c-1.28-1.64-2.49-2.76-3.66-3.4-1.87-1.03-3.94-1.55-6.17-1.55-2.99,0-5.57.9-7.72,2.69-2.15,1.79-3.45,3.62-3.84,5.49-.2,1.08-.31,5.25-.31,12.48v7.38l.14,10.04c.06,3.79.2,6.11.43,6.97.22.85.74,1.53,1.56,2.02.81.49,2.56.84,5.25,1.03l6.24.6Z"/>
    <path class="st0" d="M1200.64,485.19v5.31l-15.98-.22-13.71.22-.68-.59.37-5.82.16-6.06c-3.51,2.86-7.34,6.06-11.5,9.6-1.62,1.47-3.22,2.73-4.8,3.76-1.93.73-4.48,1.11-7.69,1.11-8.43,0-15.41-2.99-20.94-8.97-5.53-5.98-8.3-14.15-8.3-24.54,0-5.76.81-10.9,2.43-15.42,1.22-3.44,2.65-6.1,4.27-7.96,1.17-1.38,4.58-4,10.24-7.82,5.67-3.84,9.72-6.21,12.18-7.13,2.48-.9,5.65-1.37,9.56-1.37,2.43,0,4.45.18,6.05.52,1.61.35,4.35,1.26,8.27,2.73.14-2.85.22-5.88.22-9.07,0-3.74-.13-8.26-.39-13.58-.1-2.55-.38-4.15-.84-4.8-.36-.49-.87-.81-1.51-.95-.67-.16-3.79-.3-9.38-.45v-5.45c10.81-1.03,20.84-3.19,30.08-6.42l1.99,1.09c-.62,13.18-.95,20.94-1,23.24-.14,12.84-.22,30.83-.22,53.95v6.85c0,3.35.13,6.97.39,10.85.14,2.75.4,4.45.76,5.05.36.62.94,1.08,1.75,1.37.81.3,3.55.62,8.22.97M1170.58,438.04c-2.81-3.25-5.08-5.36-6.86-6.35-3.36-1.87-7.04-2.8-11.04-2.8-3.51,0-6.36.83-8.56,2.46-2.21,1.65-3.86,4.33-4.95,8.02-1.1,3.68-1.65,7.94-1.65,12.76,0,8.96,1.98,15.87,5.94,20.73,2.94,3.59,6.9,5.38,11.87,5.38,3.76,0,7.05-1.03,9.86-3.09,2.81-2.06,4.5-4.06,5.02-5.98.53-1.92.8-7.77.8-17.57l-.45-13.56Z"/>
    <path class="st0" d="M1209.78,490.5v-5.46c5.69-.39,8.94-.82,9.74-1.29.81-.47,1.32-1.34,1.53-2.62.5-2.7.76-9.66.76-20.89,0-15.4-.23-24.15-.69-26.26-.2-.98-.54-1.62-.99-1.92-1.01-.65-4.47-.98-10.35-1.03v-5.61c7.67-.78,13.45-1.63,17.36-2.51,3.91-.89,8.16-2.24,12.79-4.06l1.82.95c-.61,7.68-.92,14.88-.92,21.62v25.09c0,8.56.21,13.63.61,15.21.21.88.61,1.47,1.23,1.77,1.37.64,4.69,1.05,9.97,1.25v5.76c-7.21-.19-15.05-.29-23.52-.29-7.32,0-13.77.1-19.35.29M1230.64,383.66c3.26,0,6.01,1.11,8.27,3.31,2.25,2.22,3.38,4.87,3.38,7.98s-1.13,5.83-3.38,8.04c-2.26,2.22-5.01,3.32-8.27,3.32s-5.93-1.11-8.22-3.32c-2.29-2.21-3.43-4.9-3.43-8.04s1.13-5.76,3.39-7.98c2.25-2.2,5.01-3.31,8.26-3.31"/>
    <path class="st0" d="M1348.5,484.82v5.68c-6.9-.34-12.54-.52-16.9-.52-5.03,0-9.39.17-13.1.52l-1.37-1.33c.1-1.03.42-5.28,1-12.77l.37-12.1v-5.82c0-8.61-.34-14.27-1.02-16.97-.69-2.7-2.1-4.88-4.23-6.53-2.13-1.65-4.97-2.47-8.53-2.47s-6.5.82-8.83,2.47c-2.34,1.65-3.82,3.32-4.43,4.99-.35.98-.5,4.91-.45,11.81v12.39c0,3.58.1,7.99.3,13.21.06,2.31.26,3.83.61,4.58.25.54.59.93.98,1.17.61.4,1.81.77,3.58,1.11.61.1,2.75.29,6.39.59v5.68c-5.53-.19-12.3-.29-20.33-.29-9.28,0-16.49.1-21.62.29v-5.68c3.96,0,6.7-.27,8.23-.81.7-.24,1.24-.66,1.59-1.25.51-.94.78-2.71.84-5.32l.31-6.56c.06-1.38.07-3.62.07-6.72v-9.66c0-4.38-.15-9.69-.46-15.94-.15-3.16-.37-4.94-.64-5.35-.29-.43-.74-.72-1.34-.93-.96-.35-3.83-.6-8.6-.73v-5.68c9.24-1.52,15.3-2.66,18.2-3.4,2.88-.73,6.17-1.91,9.81-3.53l2.06.88v11.88l13.86-10.77c1.67-.63,3.09-1.07,4.23-1.29,1.14-.22,2.72-.33,4.76-.33,5.42,0,9.51.59,12.22,1.78,2.71,1.17,5.01,2.84,6.89,4.98,1.87,2.14,3.21,4.38,3.96,6.71.76,2.34,1.15,5.99,1.15,10.97,0,5.6-.06,9.17-.16,10.7-.04.59-.07,1.3-.07,2.14l.07,7.6c.05,8.31.2,13.46.42,15.43.22,1.96.68,3.22,1.37,3.79.68.57,2.2.93,4.54,1.08.85.04,2.27.17,4.25.36"/>
    <path class="st0" d="M1366.78,473.31l10.57-7.45c-3.75-1.34-6.75-2.87-9.02-4.61-2.26-1.75-4.05-4.05-5.41-6.91-1.34-2.85-2-5.99-2-9.45,0-4.66,1.23-9.03,3.72-13.09,2.49-4.06,6.38-7.3,11.69-9.7,5.3-2.41,11.52-3.62,18.61-3.62,4.78,0,9.17.53,13.22,1.59,4.03,1.07,7.42,2.63,10.16,4.69,2.94.14,4.98.22,6.09.22,1.53,0,5.67-.14,12.42-.44l-1.06,9.07h-12.03c.65,2.46.98,4.85.98,7.17,0,5.25-1.45,9.91-4.33,13.94-2.9,4.04-6.96,7.12-12.22,9.29-5.25,2.17-10.82,3.25-16.72,3.25-1.58,0-3.79-.12-6.62-.36-1.58.88-2.77,1.92-3.58,3.13-.83,1.21-1.22,2.32-1.22,3.35,0,.89.34,1.73,1.02,2.51.69.78,1.64,1.32,2.86,1.55,1.67.35,5.86.53,12.56.53l18.72-.45c5.49,0,9.72.62,12.72,1.84,2.99,1.24,5.23,3.11,6.71,5.62,1.46,2.5,2.2,5.83,2.2,9.96,0,6.15-1.5,11.7-4.49,16.68-3,4.96-7.48,9.05-13.48,12.24-7.57,3.98-16.57,5.98-27.03,5.98-8.21,0-14.92-1.11-20.09-3.33-5.17-2.2-8.82-4.84-10.89-7.89-2.09-3.05-3.12-6.38-3.12-9.96,0-2.07.33-3.95.99-5.62.65-1.66,1.41-2.92,2.27-3.76.87-.82,2.57-1.96,5.11-3.39,4.88-2.65,7.59-4.11,8.15-4.35-2.74-.3-5.21-1.25-7.39-2.87-1.99-1.77-2.97-3.79-2.97-6.06,0-1.22.25-2.6.76-4.12.71-2.16,1.42-3.89,2.14-5.17M1382.68,492.27c-4.16,2.57-6.94,4.91-8.34,7.05-1.39,2.14-2.09,4.53-2.09,7.2,0,4.47,1.89,8.21,5.66,11.21,3.79,3,9.45,4.5,17.02,4.5s13.97-1.79,18.17-5.39c4.18-3.59,6.27-8.14,6.27-13.64,0-2.66-.41-4.69-1.25-6.1-.84-1.39-2.02-2.5-3.54-3.31-1.53-.81-3.63-1.29-6.33-1.4-2.69-.13-8.91-.18-18.64-.18-1.79,0-4.1.03-6.94.07M1380.02,441.51c0,6.79,1.22,11.64,3.65,14.54,2.43,2.9,5.6,4.35,9.52,4.35,4.31,0,7.61-1.7,9.9-5.1,1.62-2.45,2.43-6.14,2.43-11.06,0-6.89-1.15-11.71-3.42-14.47-2.29-2.74-5.47-4.12-9.52-4.12s-6.92,1.25-9.17,3.76c-2.26,2.51-3.39,6.55-3.39,12.1"/>
  </g>
</svg>