<?xml version="1.0" encoding="UTF-8"?>
<svg id="Layer_1" xmlns="http://www.w3.org/2000/svg" version="1.1" viewBox="0 0 1451.34 566.93">
  <!-- Generator: Adobe Illustrator 30.1.0, SVG Export Plug-In . SVG Version: 2.1.1 Build 136)  -->
  <defs>
    <style>
      .st0 {
        fill: #fff;
      }
    </style>
  </defs>
  <g>
    <path class="st0" d="M618.73,143.16c13.89-13.88,30.06-24.78,48.05-32.41,18.66-7.88,38.47-11.89,58.89-11.89s40.22,4.01,58.86,11.89c18.01,7.62,34.19,18.52,48.07,32.41,13.88,13.89,24.78,30.07,32.4,48.07,1.15,2.73,2.22,5.48,3.22,8.24V1.75h-285.11v197.74c.99-2.77,2.06-5.53,3.21-8.26,7.62-18,18.52-34.18,32.41-48.07"/>
    <path class="st0" d="M859.56,193.53c-7.32-17.31-17.8-32.85-31.14-46.19-13.34-13.34-28.89-23.82-46.18-31.14-17.93-7.57-36.96-11.42-56.56-11.42s-38.65,3.85-56.56,11.42c-17.31,7.32-32.85,17.8-46.19,31.14-13.35,13.34-23.83,28.88-31.14,46.19-7.58,17.9-11.42,36.95-11.42,56.56s3.84,38.64,11.42,56.56c7.31,17.3,17.79,32.82,31.14,46.18,13.34,13.35,28.88,23.8,46.19,31.14,17.92,7.58,36.94,11.43,56.56,11.43s38.64-3.85,56.56-11.43c17.29-7.34,32.84-17.8,46.18-31.14,13.34-13.36,23.82-28.89,31.14-46.18,7.57-17.93,11.42-36.95,11.42-56.56s-3.85-38.66-11.42-56.56M860.62,236.69c-.44,1.59-.79,4.85-1.01,6.75h-1.72l-.22-3.79c-2.17-2.26-4.94-3.04-7.95-3.04-7.31,0-11.19,5.21-11.19,12.17,0,8.06,4.66,13.88,13,13.88,2.6,0,6.17-.93,8.42-2.25l.53.54-.98,2.17c-3.04,1.85-6.61,2.42-10.13,2.42-10.06,0-17.47-5.64-17.47-16.18s8.25-15.2,17.64-15.2c3.61,0,6.56.3,10.8,2.07l.26.48ZM711.66,111.41c-17.65,5.85-30.39,22.5-30.39,42.12,0,24.51,19.88,44.38,44.39,44.38s44.38-19.87,44.38-44.38c0-19.62-12.75-36.27-30.4-42.14,54.51,5.47,99.86,42.45,117.48,92.39-88.91,25.27-174.04,25.27-262.96,0,17.64-49.93,62.99-86.91,117.48-92.37M819.65,262.4c.18.34.67.52,1.82.63l1.63.12v1.76c-1.81-.05-4.23-.14-6.83-.14s-5.07.09-6.89.14v-1.76l1.64-.12c1.15-.11,1.62-.28,1.81-.63.26-.54.31-1.72.31-3.57v-17.99c0-1.85-.05-3.04-.31-3.57-.18-.35-.66-.54-1.81-.62l-1.64-.13v-1.77c1.82.04,4.24.13,6.89.13s5.02-.09,6.83-.13v1.77l-1.63.13c-1.15.08-1.64.27-1.82.62-.26.53-.31,1.72-.31,3.57v17.99c0,1.84.05,3.03.31,3.57M791.18,262.4c.17.34.66.52,1.81.63l1.63.12v1.76c-1.81-.05-4.24-.14-6.84-.14s-5.06.09-6.87.14v-1.76l1.64-.12c1.14-.11,1.62-.28,1.8-.63.27-.54.31-1.72.31-3.57v-21.35h-5.15c-1.2,0-2.42,0-2.74.4-.16.22-.34.58-.38,1.05l-.23,3.04h-1.76c-.09-2.85-.22-4.9-.58-7l.27-.22c4.63.04,9.21.13,13.68.13s9.07-.09,13.7-.13l.27.22c-.36,2.11-.48,4.15-.57,7h-1.78l-.22-3.04c-.05-.47-.21-.83-.39-1.05-.32-.4-1.55-.4-2.74-.4h-5.17v21.35c0,1.84.05,3.03.33,3.57M762.73,265.31l-.31.18-3.61-.58c-1.82-2.03-3.67-4.1-5.37-6.13l-14.3-17.18h-.08v17.24c0,1.84.04,3.03.31,3.57.22.44.66.66,1.82.75l1.63.12v1.64c-1.68-.05-3.35-.14-5.03-.14s-3.4.09-5.07.14v-1.64l1.63-.12c1.15-.09,1.6-.31,1.82-.75.26-.54.3-1.72.3-3.57v-17.99c0-1.85-.05-3.04-.3-3.57-.22-.45-.67-.66-1.82-.75l-1.63-.14v-1.63c1.77.04,3.53.13,5.29.13,1.24,0,2.47-.09,3.7-.13,1.5,1.94,2.96,4.02,4.54,5.86l13.76,16.06v-15.83c0-1.85-.04-3.04-.32-3.57-.22-.45-.65-.66-1.8-.75l-1.62-.14v-1.63c1.67.04,3.38.13,5.05.13s3.35-.09,5.03-.13v1.63l-1.63.14c-1.15.09-1.58.3-1.8.75-.28.53-.32,1.72-.32,3.57v20.02c0,1.54.1,3.11.14,4.45M714.3,260.72l-1.98-5.03h-11.08l-1.84,4.95c-.62,1.67.26,2.47,1.06,2.51l2.21.12v1.64c-2.12-.05-3.7-.14-5-.14s-2.84.09-4.96.14v-1.64l1.32-.12c1.15-.12,1.93-1.36,2.47-2.65l7.99-19.32,1.15-3.03.69-1.8.67-1.81h3.13l11.42,26.67c.48,1.1,1.06,1.76,2.42,1.94l1.07.12v1.64c-2.97-.05-5.12-.14-6.83-.14s-3.94.09-6.85.14v-1.64l2.36-.12c.69-.04,1.18-1.01.61-2.43M664.65,237.27c-.17-.35-.66-.54-1.81-.62l-1.62-.13v-1.77c1.81.04,4.24.13,6.87.13s5.03-.09,6.83-.13v1.77l-1.63.13c-1.14.08-1.63.27-1.82.62-.26.53-.31,1.72-.31,3.57v21.39c1.86.09,3.75.13,5.65.13,2.03,0,5.29-.4,5.38-.76l1.02-4.49h1.72l-.5,7.32-.2.35c-2.87.23-7.98.23-10.86.14-1.81-.05-3.62-.14-5.42-.14s-3.66.09-5.29.14v-1.01l1.41-.79c.71-.4.89-1.15.89-2.52v-19.75c0-1.85-.05-3.04-.32-3.57M643,262.4c.17.34.66.52,1.81.63l1.62.12v1.76c-1.8-.05-4.23-.14-6.84-.14s-5.06.09-6.87.14v-1.76l1.63-.12c1.15-.11,1.63-.28,1.82-.63.26-.54.31-1.72.31-3.57v-21.35h-5.17c-1.2,0-2.42,0-2.74.4-.17.22-.34.58-.39,1.05l-.21,3.04h-1.77c-.09-2.85-.22-4.9-.57-7l.26-.22c4.64.04,9.22.13,13.67.13s9.09-.09,13.72-.13l.26.22c-.36,2.11-.48,4.15-.58,7h-1.75l-.22-3.04c-.05-.47-.21-.83-.4-1.05-.31-.4-1.53-.4-2.73-.4h-5.16v21.35c0,1.84.04,3.03.32,3.57M612.09,260.72l-1.99-5.03h-11.07l-1.85,4.95c-.61,1.67.26,2.47,1.06,2.51l2.2.12v1.64c-2.12-.05-3.7-.14-4.99-.14s-2.85.09-4.97.14v-1.64l1.31-.12c1.15-.12,1.95-1.36,2.47-2.65l7.99-19.32,1.15-3.03.7-1.8.66-1.81h3.12l11.42,26.67c.48,1.1,1.06,1.76,2.42,1.94l1.06.12v1.64c-2.95-.05-5.11-.14-6.84-.14s-3.92.09-6.82.14v-1.64l2.33-.12c.7-.04,1.2-1.01.62-2.43M725.67,389.48c-60.93,0-112.84-39.27-131.75-93.84,89.1-25.37,174.38-25.37,263.5,0-18.92,54.56-70.83,93.84-131.75,93.84"/>
    <polygon class="st0" points="702.31 253.24 711.31 253.24 706.73 242.03 702.31 253.24"/>
    <polygon class="st0" points="600.09 253.24 609.09 253.24 604.5 242.03 600.09 253.24"/>
  </g>
  <g>
    <path class="st0" d="M3.96,538.82v-4.1c2.67-.2,4.26-.37,4.77-.52.51-.16.95-.38,1.31-.7.36-.31.73-.8,1.11-1.48.38-.68,1.51-3.19,3.39-7.55.86-2.04,2.5-6.08,4.95-12.11l12.9-31.86,4.35-11.23h7.03l22.11,51.64,3.07,6.78,1.98,4.54c.33.6.64,1.03.94,1.29.3.27.64.47,1.02.6.38.13,1.34.25,2.89.35.5.07,1.22.15,2.18.25v4.1l-13.75-.29-17.36.29v-4.1c3.99-.16,6.24-.39,6.75-.67.51-.28.77-.74.77-1.41,0-.82-.38-2.18-1.14-4.05l-4.25-10.89h-25.43l-2.17,5.94c-1.65,4.55-2.47,7.38-2.47,8.51,0,.79.26,1.35.79,1.68.8.46,3.15.75,7.07.89v4.11l-11.42-.3-11.38.3ZM25.81,512.06c3.1.11,6.61.15,10.54.15s7.19-.04,10.19-.15l-10.59-25.52-10.14,25.52Z"/>
    <path class="st0" d="M82.6,501.18v-2.23l4.45-2.82c.73-.46,1.42-.95,2.08-1.48v-6.64c0-2.37-.13-5.3-.4-8.8,3.2-1.05,5.28-1.76,6.24-2.12.16-.07,2.26-1.04,6.28-2.92l1.29.99-.49,5.14-.35,5.68-.45,8.66h1.64c4.38,0,7.7-.17,9.94-.5l-.84,6.68c-.39.07-.76.1-1.09.1l-4.85-.1h-4.8v16.53c0,5.08.05,8.08.15,9,.13,1.55.68,2.77,1.66,3.64.97.87,2.38,1.31,4.23,1.31,1.12.02,2.02,0,2.7-.08.68-.08,1.54-.24,2.6-.47l.79,2.03-1.78,1.77c-1.45,1.48-2.72,2.79-3.81,3.91-1.29.56-2.43.93-3.44,1.11-1.01.18-2.04.27-3.1.27-3.83,0-6.83-.98-9.03-2.94-2.19-1.97-3.29-4.41-3.29-7.35l.2-16.33v-12.22h-1.33c-1.82,0-3.55.06-5.19.16"/>
    <path class="st0" d="M144.83,534.86v3.96c-4.13-.27-8.43-.4-12.91-.4s-9.53.13-15.14.4v-3.9c3.13-.1,5.03-.23,5.69-.4.49-.13.87-.32,1.11-.57.25-.25.42-.64.52-1.16.23-.99.4-4.11.49-9.36.1-5.24.15-9.89.15-13.95v-16.32c0-5.18-.12-9.91-.35-14.2-.14-2.31-.3-3.67-.5-4.1-.13-.23-.31-.41-.54-.54-.4-.26-1.02-.46-1.88-.6-.5-.06-1.98-.15-4.45-.24v-3.66c4.09-.42,7.36-.9,9.8-1.41,2.45-.51,5.73-1.41,9.85-2.69l1.04.6-.4,9.98c-.17,5.61-.26,12.48-.29,20.63v12.66c0,4.78.04,8.36.09,10.73.13,5.91.23,9.48.31,10.71.06,1.24.17,2.02.34,2.35.1.23.26.43.49.59.29.23.81.41,1.53.55.3.06,1.97.18,5.05.34"/>
    <path class="st0" d="M196.11,535.11v3.7c-3.79-.16-7.15-.25-10.09-.25-2.76,0-5.46.09-8.06.25l-.44-.55.44-6.48c-1.18.76-4.68,3.36-10.49,7.82-1.49.33-2.9.49-4.26.49-3.58,0-6.4-1.05-8.43-3.17-2.03-2.11-3.04-5.14-3.04-9.1,0-2.67.46-4.86,1.36-6.58.9-1.71,1.88-2.97,2.91-3.78,1.05-.8,2.65-1.59,4.83-2.35,5.21-1.85,10.91-3.3,17.11-4.36.07-3.92-.74-6.91-2.43-8.95-1.71-2.05-4.32-3.06-7.81-3.06-1.42,0-2.77.18-4.06.54-.56.16-1.22.49-1.98.98l-2.07,5-3.37-.74.3-6.38c2.44-1.65,4.76-3.08,6.97-4.3,2.21-1.22,3.75-1.96,4.65-2.23,1.22-.36,2.94-.54,5.15-.54,3.59,0,6.55.52,8.88,1.56,2.32,1.04,4.04,2.27,5.14,3.68,1.1,1.42,1.87,2.94,2.27,4.55.41,1.62.62,3.66.62,6.13,0,1.05-.09,3.81-.25,8.26-.09,2.97-.15,5.4-.15,7.27,0,5.87.16,9.43.5,10.69.13.6.39.98.79,1.19.53.26,2.2.5,4.99.7M177.96,514.92c-2.8.6-5.36,1.31-7.7,2.15-2.32.85-3.93,1.88-4.82,3.12-.89,1.23-1.33,2.8-1.33,4.67,0,2.12.54,3.75,1.61,4.9,1.07,1.16,2.48,1.74,4.23,1.74,1.48,0,2.98-.43,4.48-1.29,1.5-.86,2.68-1.94,3.53-3.27v-12.02Z"/>
    <path class="st0" d="M258.24,535.01v3.81c-4.49-.23-8.15-.35-10.99-.35-3.27,0-6.1.11-8.51.35l-.89-.89c.07-.69.28-3.54.65-8.56l.24-8.11v-3.9c0-5.77-.22-9.56-.66-11.38-.44-1.81-1.35-3.27-2.75-4.38-1.38-1.11-3.23-1.66-5.54-1.66s-4.22.55-5.74,1.66c-1.52,1.11-2.48,2.22-2.88,3.34-.22.66-.33,3.29-.29,7.91v8.31c0,2.4.07,5.36.2,8.85.03,1.55.17,2.57.4,3.07.17.36.38.62.64.79.4.27,1.18.52,2.32.74.4.07,1.79.2,4.16.4v3.81c-3.6-.13-8-.2-13.21-.2-6.04,0-10.72.07-14.05.2v-3.81c2.57,0,4.35-.18,5.35-.55.46-.16.8-.44,1.04-.84.33-.63.51-1.81.54-3.57l.2-4.4c.03-.92.05-2.43.05-4.5v-6.48c0-2.94-.1-6.49-.3-10.68-.09-2.12-.24-3.31-.41-3.59-.18-.28-.47-.48-.87-.62-.62-.23-2.49-.4-5.59-.49v-3.81c6-1.02,9.94-1.78,11.83-2.28,1.88-.49,4.01-1.28,6.38-2.37l1.33.59v7.96l9-7.22c1.09-.42,2.01-.72,2.75-.86.74-.15,1.77-.22,3.09-.22,3.52,0,6.18.4,7.94,1.19,1.76.79,3.26,1.9,4.48,3.34,1.23,1.43,2.08,2.94,2.58,4.5.49,1.57.74,4.02.74,7.35,0,3.76-.04,6.15-.09,7.17-.04.4-.05.87-.05,1.43l.05,5.09c.02,5.57.12,9.02.26,10.34.15,1.31.44,2.16.89,2.54.44.38,1.43.62,2.95.72.55.03,1.48.12,2.77.24"/>
    <path class="st0" d="M262.59,501.18v-2.23l4.45-2.82c.72-.46,1.42-.95,2.07-1.48v-6.64c0-2.37-.13-5.3-.39-8.8,3.2-1.05,5.27-1.76,6.23-2.12.16-.07,2.26-1.04,6.28-2.92l1.29.99-.49,5.14-.35,5.68-.45,8.66h1.63c4.39,0,7.71-.17,9.94-.5l-.84,6.68c-.4.07-.76.1-1.09.1l-4.86-.1h-4.79v16.53c0,5.08.05,8.08.15,9,.13,1.55.68,2.77,1.66,3.64.98.87,2.38,1.31,4.23,1.31,1.11.02,2.01,0,2.7-.08.67-.08,1.54-.24,2.59-.47l.8,2.03-1.78,1.77c-1.45,1.48-2.72,2.79-3.81,3.91-1.29.56-2.43.93-3.44,1.11-1.01.18-2.04.27-3.09.27-3.83,0-6.83-.98-9.03-2.94-2.19-1.97-3.29-4.41-3.29-7.35l.2-16.33v-12.22h-1.33c-1.81,0-3.55.06-5.2.16"/>
    <path class="st0" d="M297.46,538.82v-3.66c3.7-.26,5.81-.55,6.33-.86.53-.31.86-.9.99-1.75.33-1.81.49-6.48.49-14,0-10.32-.15-16.19-.45-17.6-.13-.66-.35-1.09-.64-1.29-.66-.43-2.9-.66-6.73-.69v-3.76c4.98-.52,8.74-1.09,11.28-1.68,2.54-.59,5.3-1.5,8.31-2.72l1.18.64c-.4,5.15-.6,9.98-.6,14.49v16.82c0,5.74.14,9.14.4,10.19.13.59.4.98.8,1.19.89.43,3.05.71,6.48.84v3.86c-4.68-.13-9.78-.2-15.28-.2-4.75,0-8.94.07-12.57.2M311.01,467.2c2.11,0,3.9.74,5.37,2.22,1.46,1.49,2.19,3.27,2.19,5.35s-.74,3.91-2.19,5.39c-1.48,1.48-3.26,2.23-5.37,2.23s-3.86-.74-5.34-2.23c-1.48-1.48-2.23-3.28-2.23-5.39s.74-3.86,2.2-5.35c1.47-1.47,3.26-2.22,5.36-2.22"/>
    <path class="st0" d="M370.36,532.29l-2.17,4.8c-2.84,1.42-5.14,2.35-6.9,2.79-1.77.45-3.89.67-6.36.67-5.41,0-9.8-1.05-13.16-3.16-3.37-2.11-5.92-5.13-7.67-9.05-1.25-2.77-1.87-6.46-1.87-11.08,0-3.46.33-6.3.98-8.5.67-2.21,1.6-4.16,2.82-5.84.82-1.12,1.93-2.18,3.31-3.17l7.62-4.79c2.57-1.65,4.34-2.63,5.3-2.97,1.58-.59,3.65-.89,6.18-.89,2.12,0,4.09.17,5.92.52,1.83.35,3.51.86,5.07,1.56l.49.84-1.24,8.07c-.1.72-.27,3-.49,6.83h-3.86c-.2-2.94-.44-5.11-.74-6.53-.69-1.12-1.76-2.04-3.21-2.75-1.45-.71-3.23-1.06-5.34-1.06-2.51,0-4.51.47-5.99,1.38-1.48.92-2.58,2.48-3.26,4.65-.7,2.18-1.05,4.82-1.05,7.92,0,4.15.71,7.87,2.14,11.15,1.42,3.28,3.28,5.69,5.61,7.22,2.32,1.53,5.18,2.3,8.58,2.3,1.55,0,3.01-.17,4.41-.52,1.38-.35,2.71-.85,3.96-1.5l.93,1.13Z"/>
    <path class="st0" d="M446.04,514.78h-3.96c-.09-4.12-.38-6.61-.84-7.47-.23-.42-.83-.74-1.78-.94-2.44-.43-6.3-.65-11.57-.65-.76,0-2.07.02-3.96.05v5.48c0,7.82.09,13.3.27,16.46.18,3.14.44,4.98.77,5.51.23.36.65.65,1.24.86.6.22,3.19.48,7.77.82v3.9l-19.39-.35c-2.81,0-7.24.11-13.31.35v-4.1c3.79-.07,5.99-.22,6.58-.45.29-.09.54-.28.74-.54.29-.4.53-1.25.69-2.57.1-.76.23-3.14.4-7.15.16-4.01.24-6.88.24-8.63v-20.48c0-.46-.15-5.07-.44-13.85-.07-2.54-.25-4.34-.54-5.39-.11-.36-.26-.64-.47-.82-.22-.18-.68-.35-1.39-.52-.71-.17-2.64-.35-5.81-.55v-4.15l17.56.3,23.8-.4c3.32,0,6.48.16,9.44.49l.45.69c-.37,1.88-.68,4.28-.94,7.17-.27,2.9-.41,5.44-.45,7.62h-4.05c0-.79-.09-2.58-.25-5.34-.07-1.45-.17-2.32-.29-2.63-.11-.22-.25-.39-.45-.49-.59-.4-1.97-.79-4.13-1.16-2.16-.38-4.69-.57-7.59-.57-.56,0-2.12.04-4.67.15-2.56.09-4.29.18-5.22.25-.36,3.29-.54,9.24-.54,17.86v6.92c4.23.14,7.07.2,8.56.2,4.28,0,6.99-.2,8.11-.59.42-.13.74-.51.94-1.13.3-.83.48-2.71.54-5.64h4.31c-.23,5.61-.35,12.77-.35,21.47"/>
    <path class="st0" d="M458.66,515.47c0-5.61.95-10.25,2.87-13.93,1.91-3.67,4.78-6.44,8.6-8.31,3.83-1.86,8.27-2.79,13.35-2.79,7.62,0,13.41,2,17.39,5.99,3.97,3.99,5.96,9.84,5.96,17.55,0,4.46-.58,8.32-1.73,11.58-1.16,3.26-2.71,5.9-4.65,7.89-1.94,2-3.99,3.5-6.13,4.53-3.66,1.71-7.78,2.56-12.36,2.56-7.46,0-13.2-2.12-17.24-6.35-4.04-4.24-6.06-10.48-6.06-18.72M472.36,513.09c0,8.78,1.29,15.02,3.86,18.75,1.71,2.47,4.15,3.71,7.32,3.71,2.71,0,4.85-.94,6.43-2.82,2.12-2.51,3.17-7.35,3.17-14.55,0-5.04-.42-9.37-1.26-12.98-.85-3.61-2.08-6.12-3.71-7.54-1.63-1.42-3.6-2.12-5.91-2.12-1.98,0-3.71.52-5.19,1.56-1.48,1.04-2.64,2.79-3.46,5.24-.83,2.45-1.23,6.04-1.23,10.75"/>
    <path class="st0" d="M542.2,535.01v3.81c-3.72-.16-7.88-.25-12.47-.25-5.11,0-10.42.09-15.93.25v-3.81c2.58,0,4.36-.18,5.35-.55.46-.16.8-.44,1.04-.84.33-.63.51-1.81.54-3.57l.2-4.4c.03-.92.04-2.43.04-4.5v-6.48c0-2.94-.09-6.49-.29-10.68-.1-2.12-.24-3.31-.41-3.59-.19-.28-.48-.48-.87-.62-.62-.23-2.49-.4-5.59-.49v-3.81c6-1.02,9.94-1.78,11.83-2.28,1.87-.49,4.01-1.28,6.37-2.37l1.34.59-.09,9.99c2.14-2.21,3.79-4.04,4.94-5.48,1.72-2.05,3.01-3.35,3.86-3.91,1.18-.8,2.76-1.18,4.7-1.18,1.22,0,2.32.2,3.32.59l-.31,7.02c-.09,3.83-.18,6.02-.25,6.58l-2.07.65c-.82-1.1-1.62-1.85-2.38-2.28-1.22-.69-2.56-1.04-4.01-1.04-1.94,0-3.62.61-5.02,1.81-1.4,1.2-2.23,2.43-2.49,3.68-.13.72-.2,3.52-.2,8.36v4.95l.11,6.73c.02,2.54.12,4.09.27,4.67.15.57.48,1.03,1.01,1.35.53.33,1.67.56,3.42.69l4.05.4Z"/>
    <path class="st0" d="M569.99,539.21c-.13-.43-.42-1.67-.89-3.71-.27-1.11-.68-2.69-1.24-4.7l-4.15-14.74c-1.75-6.17-2.87-10.09-3.37-11.77-1.18-3.92-2.02-6.23-2.51-6.93-.2-.29-.52-.51-.94-.64-.69-.27-2.41-.43-5.15-.49v-3.9c4.15.09,8.6.14,13.35.14s9.56-.04,14.05-.14v3.9c-3.52,0-5.63.2-6.32.6-.43.22-.65.62-.65,1.18,0,.63.16,1.58.49,2.87l5.98,22.5,8.61-18.89,2.96-6.43,2.97-6.98h5.04l13.99,32.3,4.9-14.54c.73-2.27,1.45-4.83,2.18-7.66.33-1.46.49-2.41.49-2.88,0-.79-.25-1.29-.76-1.5-.52-.22-2.57-.41-6.16-.57v-3.91c3.52.09,6.81.14,9.84.14s6.46-.04,10.48-.14v3.91c-2.34.13-3.6.22-3.76.24-.47.14-.88.36-1.26.67-.38.31-.68.68-.92,1.11-.23.42-1.05,2.55-2.47,6.38-.56,1.48-1.54,4.22-2.92,8.21l-2.63,7.82-.78,2.22c-.4,1.16-1.45,4.37-3.17,9.65l-1.98,6.68h-8.06c-3.14-7.52-4.95-11.85-5.44-13.01l-7.97-18.16c-2.87,5.93-4.99,10.45-6.38,13.53-1.38,3.08-2.6,5.86-3.65,8.33l-3.76,9.3h-8.07Z"/>
    <path class="st0" d="M682.86,535.11v3.7c-3.79-.16-7.15-.25-10.09-.25-2.77,0-5.46.09-8.06.25l-.45-.55.45-6.48c-1.19.76-4.69,3.36-10.48,7.82-1.49.33-2.9.49-4.26.49-3.59,0-6.4-1.05-8.43-3.17-2.03-2.11-3.04-5.14-3.04-9.1,0-2.67.45-4.86,1.36-6.58.91-1.71,1.88-2.97,2.92-3.78,1.04-.8,2.64-1.59,4.82-2.35,5.21-1.85,10.92-3.3,17.12-4.36.06-3.92-.74-6.91-2.43-8.95-1.71-2.05-4.32-3.06-7.82-3.06-1.42,0-2.76.18-4.05.54-.56.16-1.22.49-1.98.98l-2.08,5-3.36-.74.29-6.38c2.44-1.65,4.77-3.08,6.98-4.3,2.2-1.22,3.76-1.96,4.65-2.23,1.22-.36,2.93-.54,5.14-.54,3.59,0,6.56.52,8.88,1.56,2.32,1.04,4.04,2.27,5.15,3.68,1.1,1.42,1.86,2.94,2.27,4.55.41,1.62.62,3.66.62,6.13,0,1.05-.09,3.81-.25,8.26-.1,2.97-.15,5.4-.15,7.27,0,5.87.16,9.43.49,10.69.13.6.4.98.79,1.19.53.26,2.2.5,4.99.7M664.72,514.92c-2.81.6-5.37,1.31-7.7,2.15-2.32.85-3.93,1.88-4.82,3.12-.89,1.23-1.34,2.8-1.34,4.67,0,2.12.53,3.75,1.6,4.9,1.07,1.16,2.49,1.74,4.23,1.74,1.48,0,2.98-.43,4.48-1.29,1.5-.86,2.68-1.94,3.54-3.27v-12.02h0Z"/>
    <path class="st0" d="M716.65,535.01v3.81c-3.73-.16-7.88-.25-12.46-.25-5.12,0-10.42.09-15.93.25v-3.81c2.58,0,4.35-.18,5.35-.55.46-.16.8-.44,1.03-.84.33-.63.51-1.81.55-3.57l.2-4.4c.02-.92.04-2.43.04-4.5v-6.48c0-2.94-.1-6.49-.29-10.68-.1-2.12-.24-3.31-.42-3.59-.18-.28-.47-.48-.86-.62-.62-.23-2.49-.4-5.59-.49v-3.81c6-1.02,9.94-1.78,11.82-2.28,1.88-.49,4.01-1.28,6.38-2.37l1.34.59-.1,9.99c2.14-2.21,3.79-4.04,4.94-5.48,1.72-2.05,2.99-3.35,3.86-3.91,1.18-.8,2.75-1.18,4.7-1.18,1.22,0,2.32.2,3.31.59l-.3,7.02c-.09,3.83-.18,6.02-.25,6.58l-2.07.65c-.83-1.1-1.62-1.85-2.38-2.28-1.22-.69-2.56-1.04-4.01-1.04-1.94,0-3.62.61-5.02,1.81-1.4,1.2-2.24,2.43-2.5,3.68-.13.72-.2,3.52-.2,8.36v4.95l.09,6.73c.04,2.54.13,4.09.28,4.67.15.57.48,1.03,1.01,1.35.52.33,1.66.56,3.41.69l4.06.4Z"/>
    <path class="st0" d="M783.96,535.26v3.56l-10.38-.15-8.91.15-.44-.4.24-3.9.11-4.06c-2.28,1.92-4.77,4.06-7.47,6.44-1.05.98-2.09,1.83-3.12,2.52-1.25.49-2.91.74-4.99.74-5.48,0-10.01-2-13.6-6.01-3.59-4.01-5.39-9.48-5.39-16.45,0-3.86.53-7.31,1.58-10.34.79-2.31,1.72-4.09,2.77-5.34.76-.92,2.97-2.68,6.65-5.24,3.68-2.58,6.31-4.16,7.91-4.78,1.61-.6,3.67-.92,6.21-.92,1.58,0,2.89.12,3.93.35,1.05.23,2.82.85,5.37,1.83.09-1.91.15-3.94.15-6.08,0-2.51-.09-5.54-.25-9.1-.07-1.71-.25-2.78-.55-3.21-.23-.33-.56-.54-.98-.64-.43-.11-2.46-.2-6.09-.3v-3.65c7.02-.69,13.54-2.14,19.54-4.3l1.29.73c-.4,8.84-.61,14.04-.65,15.58-.09,8.6-.15,20.66-.15,36.16v4.59c0,2.25.09,4.67.25,7.27.09,1.85.26,2.98.49,3.38.23.41.61.72,1.14.92.52.2,2.3.42,5.34.65M764.44,503.65c-1.82-2.18-3.3-3.59-4.46-4.26-2.18-1.25-4.57-1.88-7.17-1.88-2.28,0-4.13.55-5.56,1.65-1.44,1.11-2.51,2.9-3.21,5.37-.72,2.47-1.07,5.32-1.07,8.55,0,6,1.29,10.63,3.86,13.9,1.91,2.41,4.48,3.61,7.71,3.61,2.44,0,4.58-.69,6.41-2.07,1.83-1.38,2.92-2.72,3.26-4.01.35-1.29.52-5.21.52-11.77l-.29-9.09Z"/>
    <path class="st0" d="M789.9,538.82v-3.66c3.7-.26,5.81-.55,6.33-.86.53-.31.86-.9,1-1.75.33-1.81.49-6.48.49-14,0-10.32-.15-16.19-.45-17.6-.13-.66-.35-1.09-.64-1.29-.66-.43-2.9-.66-6.73-.69v-3.76c4.98-.52,8.74-1.09,11.28-1.68,2.54-.59,5.3-1.5,8.31-2.72l1.18.64c-.4,5.15-.59,9.98-.59,14.49v16.82c0,5.74.14,9.14.4,10.19.14.59.4.98.8,1.19.89.43,3.05.71,6.48.84v3.86c-4.68-.13-9.78-.2-15.28-.2-4.75,0-8.94.07-12.57.2M803.45,467.2c2.12,0,3.9.74,5.37,2.22,1.46,1.49,2.19,3.27,2.19,5.35s-.74,3.91-2.19,5.39c-1.47,1.48-3.25,2.23-5.37,2.23s-3.85-.74-5.34-2.23c-1.48-1.48-2.23-3.28-2.23-5.39s.73-3.86,2.2-5.35c1.46-1.47,3.25-2.22,5.36-2.22"/>
    <path class="st0" d="M880.02,535.01v3.81c-4.48-.23-8.15-.35-10.98-.35-3.27,0-6.1.11-8.51.35l-.89-.89c.07-.69.28-3.54.65-8.56l.24-8.11v-3.9c0-5.77-.22-9.56-.66-11.38-.45-1.81-1.37-3.27-2.75-4.38-1.38-1.11-3.23-1.66-5.54-1.66s-4.22.55-5.74,1.66c-1.52,1.11-2.48,2.22-2.88,3.34-.22.66-.33,3.29-.29,7.91v8.31c0,2.4.07,5.36.2,8.85.04,1.55.17,2.57.4,3.07.16.36.38.62.64.79.4.27,1.18.52,2.32.74.4.07,1.79.2,4.15.4v3.81c-3.59-.13-7.99-.2-13.21-.2-6.03,0-10.71.07-14.04.2v-3.81c2.57,0,4.35-.18,5.35-.55.46-.16.8-.44,1.03-.84.33-.63.51-1.81.55-3.57l.2-4.4c.04-.92.04-2.43.04-4.5v-6.48c0-2.94-.1-6.49-.3-10.68-.09-2.12-.24-3.31-.41-3.59-.19-.28-.48-.48-.87-.62-.62-.23-2.49-.4-5.59-.49v-3.81c6-1.02,9.94-1.78,11.82-2.28,1.87-.49,4.01-1.28,6.38-2.37l1.34.59v7.96l9-7.22c1.09-.42,2.01-.72,2.75-.86.74-.15,1.77-.22,3.09-.22,3.52,0,6.18.4,7.94,1.19,1.76.79,3.25,1.9,4.48,3.34,1.22,1.43,2.08,2.94,2.57,4.5.49,1.57.74,4.02.74,7.35,0,3.76-.04,6.15-.1,7.17-.03.4-.04.87-.04,1.43l.04,5.09c.03,5.57.13,9.02.28,10.34.15,1.31.44,2.16.89,2.54.44.38,1.43.62,2.95.72.55.03,1.48.12,2.76.24"/>
    <path class="st0" d="M891.9,527.29l6.87-4.99c-2.44-.9-4.39-1.93-5.86-3.09-1.47-1.17-2.63-2.71-3.52-4.63-.87-1.91-1.3-4.02-1.3-6.33,0-3.12.8-6.05,2.42-8.77,1.62-2.72,4.15-4.89,7.59-6.51,3.45-1.62,7.48-2.43,12.09-2.43,3.1,0,5.96.35,8.59,1.06,2.62.72,4.82,1.76,6.6,3.14,1.91.09,3.23.15,3.96.15.99,0,3.68-.09,8.07-.3l-.69,6.08h-7.82c.42,1.65.64,3.25.64,4.8,0,3.52-.94,6.64-2.82,9.35-1.88,2.71-4.52,4.78-7.94,6.23-3.41,1.45-7.03,2.18-10.86,2.18-1.03,0-2.46-.08-4.3-.24-1.03.59-1.8,1.29-2.32,2.1-.54.81-.79,1.55-.79,2.25,0,.6.22,1.16.66,1.68.45.52,1.06.88,1.86,1.04,1.09.23,3.81.35,8.16.35l12.16-.3c3.57,0,6.31.41,8.27,1.24,1.94.83,3.4,2.08,4.36,3.76.95,1.68,1.43,3.91,1.43,6.68,0,4.12-.97,7.84-2.92,11.18-1.95,3.33-4.86,6.06-8.76,8.21-4.91,2.67-10.76,4.01-17.56,4.01-5.34,0-9.69-.74-13.05-2.23-3.36-1.47-5.73-3.25-7.08-5.29-1.36-2.05-2.03-4.28-2.03-6.68,0-1.39.22-2.64.65-3.77.42-1.11.92-1.96,1.48-2.52.56-.55,1.67-1.31,3.32-2.27,3.17-1.78,4.93-2.75,5.3-2.92-1.78-.2-3.38-.84-4.8-1.93-1.29-1.18-1.93-2.54-1.93-4.06,0-.82.16-1.74.49-2.76.46-1.45.92-2.61,1.39-3.46M902.23,540c-2.71,1.72-4.51,3.29-5.41,4.73-.91,1.43-1.35,3.04-1.35,4.83,0,3,1.22,5.5,3.68,7.51,2.46,2.01,6.14,3.01,11.06,3.01s9.08-1.2,11.8-3.61c2.72-2.41,4.08-5.46,4.08-9.15,0-1.78-.27-3.14-.81-4.09-.55-.93-1.31-1.68-2.3-2.22-.99-.54-2.36-.86-4.11-.94-1.75-.09-5.79-.12-12.11-.12-1.16,0-2.66.02-4.51.04M900.5,505.97c0,4.55.79,7.8,2.37,9.74,1.58,1.94,3.64,2.92,6.18,2.92,2.8,0,4.94-1.14,6.43-3.42,1.05-1.64,1.58-4.12,1.58-7.41,0-4.62-.74-7.85-2.22-9.7-1.48-1.84-3.55-2.76-6.19-2.76s-4.49.84-5.96,2.52c-1.47,1.68-2.2,4.39-2.2,8.11"/>
    <path class="st0" d="M1014.75,487.72h-4.15c-.06-3.83-.22-6.53-.49-8.11-1.02-1.45-2.8-2.74-5.32-3.86-2.52-1.12-5.35-1.68-8.47-1.68-4.49,0-7.96,1.12-10.42,3.39-2.45,2.25-3.69,4.9-3.69,7.94.04,2.18.4,3.94,1.1,5.3.69,1.35,1.68,2.42,2.96,3.21,1.29.79,3.18,1.51,5.68,2.18,1.92.39,4.58.89,7.99,1.48,3.41.59,5.63,1,6.65,1.24,2.68.69,4.84,1.52,6.48,2.49,1.65.97,2.96,2.09,3.94,3.36.97,1.27,1.77,2.87,2.4,4.79.62,1.93.93,4.1.93,6.5,0,4.23-.87,7.94-2.62,11.13-1.32,2.41-3.15,4.61-5.49,6.6-2.34,1.99-4.74,3.49-7.22,4.48-3.96,1.58-8.7,2.37-14.24,2.37-4.06,0-7.67-.38-10.83-1.13-3.16-.76-6.64-2.07-10.43-3.91,1.02-3.76,1.55-9.48,1.58-17.16h4.15c-.07,2.38.11,5.33.54,8.85,1.25,2.05,3.4,3.84,6.43,5.39,3.04,1.55,6.35,2.33,9.94,2.33,3.14,0,5.94-.55,8.39-1.66s4.23-2.63,5.34-4.58c1.1-1.94,1.66-4.15,1.66-6.63,0-2.08-.39-3.86-1.16-5.35-.78-1.49-1.99-2.67-3.64-3.56-1.65-.89-4.55-1.81-8.71-2.76-5.97-1.26-9.89-2.17-11.77-2.72-2.83-.86-5.11-2.1-6.85-3.71-1.73-1.62-3.02-3.57-3.88-5.86-.86-2.3-1.29-4.76-1.29-7.39,0-3.7.77-7.1,2.32-10.22,1.55-3.12,3.59-5.53,6.13-7.25,2.54-1.71,5.41-2.95,8.6-3.69,3.2-.73,6.48-1.1,9.85-1.1s6.89.31,10.16.93c3.28.63,6.13,1.54,8.53,2.72l.4,1.19c-.46,2.14-.81,4.24-1.01,6.3-.22,2.06-.37,4.78-.47,8.14"/>
    <path class="st0" d="M1028.06,538.82v-4.1c2.67-.2,4.26-.37,4.77-.52.51-.16.95-.38,1.31-.7.36-.31.74-.8,1.11-1.48.38-.68,1.51-3.19,3.39-7.55.85-2.04,2.5-6.08,4.95-12.11l12.9-31.86,4.35-11.23h7.03l22.11,51.64,3.07,6.78,1.98,4.54c.33.6.64,1.03.94,1.29.29.27.63.47,1.01.6.38.13,1.34.25,2.89.35.49.07,1.22.15,2.18.25v4.1l-13.75-.29-17.36.29v-4.1c3.99-.16,6.25-.39,6.75-.67.51-.28.77-.74.77-1.41,0-.82-.38-2.18-1.14-4.05l-4.26-10.89h-25.42l-2.18,5.94c-1.65,4.55-2.47,7.38-2.47,8.51,0,.79.27,1.35.79,1.68.79.46,3.14.75,7.07.89v4.11l-11.42-.3-11.37.3ZM1049.92,512.06c3.1.11,6.62.15,10.54.15s7.19-.04,10.2-.15l-10.59-25.52-10.14,25.52Z"/>
    <path class="st0" d="M1140.88,545.13c-2.07-1.23-4.22-3.12-6.45-5.68-2.22-2.57-3.98-5.24-5.27-8.01-.96-2.05-1.66-4.15-2.1-6.27-.44-2.14-.66-4.61-.66-7.42,0-3.99.49-7.6,1.46-10.82.98-3.22,2.64-6.41,4.98-9.56,2.35-3.15,4.99-5.74,7.91-7.75l1.74,1.54c-1.92,2.34-3.3,4.35-4.13,6.03-.83,1.68-1.5,4.01-2.03,6.98-.7,3.93-1.05,8.61-1.05,14.04,0,6.83.58,12.08,1.75,15.76,1.17,3.67,2.99,6.82,5.46,9.46l-1.61,1.71Z"/>
    <path class="st0" d="M1146.64,494.92v-2.72l9.7.23,14.63-.3c2.87,0,5.12.3,6.78.89,1.66.59,3.08,1.66,4.28,3.21,1.19,1.55,1.78,3.56,1.78,6.03s-.57,4.76-1.72,6.88c-1.14,2.12-2.93,3.86-5.37,5.22-2.43,1.37-5.03,2.05-7.8,2.05-.7,0-1.39-.04-2.05-.11-.67-.08-1.33-.2-1.98-.34-.22-.61-.62-1.39-1.19-2.33l.7-.72c.48.15.93.27,1.35.35.43.08.82.11,1.16.11,2.12,0,3.87-.74,5.24-2.25,1.38-1.49,2.06-3.67,2.06-6.53s-.71-5.24-2.16-6.75c-1.43-1.51-3.45-2.26-6.02-2.26-1.22,0-2.59.15-4.09.43-.11,1.36-.17,3.34-.2,5.97l-.1,6.42v12.41c0,3.06.04,6.22.13,9.49.07,1.9.19,3.1.36,3.6.09.22.24.41.44.57.21.17.59.29,1.13.37l4.42.3v2.88c-5.58-.13-9.78-.2-12.6-.2-3.1,0-6.07.07-8.88.2v-2.88c2.42-.04,3.95-.22,4.59-.55.2-.11.35-.28.46-.49.15-.31.27-1.1.36-2.39.24-3.49.36-7.38.36-11.66v-11.56l-.13-6.16c-.05-2.64-.09-4.28-.15-4.94-.05-.65-.16-1.12-.31-1.41-.09-.17-.24-.33-.44-.46-.22-.13-.59-.24-1.13-.36l-3.6-.23Z"/>
    <path class="st0" d="M1197.31,538.02v-2.69c2.62-.09,4.18-.26,4.67-.53.49-.26.82-.7,1-1.3.24-.94.35-3.77.35-8.48v-19.62c0-5.35-.04-8.34-.1-8.97h-4.68c-2.36,0-4.43.08-6.22.22-.72.07-1.14.16-1.25.27-.15.13-.28.51-.39,1.14-.29,1.53-.45,3.24-.49,5.14h-2.71c-.1-4.48-.15-6.99-.17-7.56-.07-.96-.18-2-.32-3.11l.29-.33c1.03.11,2.12.18,3.28.23,1.88.06,5.49.1,10.83.1h13.23c5.5,0,9.18-.04,11.04-.1,1-.04,2.02-.12,3.05-.23l.32.33c-.2,1.33-.32,2.49-.36,3.5-.02.18-.07,2.57-.13,7.17h-2.72c-.04-1.7-.19-3.33-.43-4.87-.13-.79-.27-1.26-.42-1.41-.13-.11-.48-.19-1.05-.23-1.79-.17-3.94-.26-6.45-.26h-4.69c-.07.76-.09,3.75-.09,8.97v19.62c0,4.72.11,7.55.36,8.52.15.56.48.98.98,1.26.5.27,2.07.45,4.68.53v2.69c-4.23-.2-7.81-.29-10.7-.29-3.1,0-6.68.09-10.72.29"/>
    <path class="st0" d="M1256.72,513.95l4.13-6.68c.7-1.2,2.77-4.86,6.22-10.97,1.2-2.1,1.96-3.46,2.27-4.1h5.14v1.47c-2.64,3.56-5.49,7.74-8.55,12.54-3.05,4.8-4.94,7.89-5.66,9.27-.48.94-.79,1.75-.95,2.45-.13.5-.2,1.32-.2,2.45v5.54c0,2.77.07,4.79.22,6.06.14,1.27.31,2.03.5,2.3.2.26.53.46.98.59.46.13,1.9.22,4.32.26v2.88c-4.17-.13-7.94-.2-11.3-.2s-6.6.07-9.96.2v-2.88c2.49-.09,3.95-.18,4.37-.3.43-.1.72-.27.88-.49.17-.22.28-.87.34-1.97.13-2.49.2-4.6.2-6.35v-6.22c0-.5-.41-1.54-1.24-3.11-2.06-3.76-4.25-7.46-6.58-11.11-1.9-2.97-3.67-5.35-5.31-7.14-1.09-1.18-1.86-1.89-2.32-2.13-.28-.13-1.25-.2-2.89-.2v-2.46l6.94-1.38c1.18-.26,2.39-.55,3.63-.88,1.33.74,2.31,1.4,2.92,1.98.61.58,1.45,1.67,2.52,3.26,1.59,2.36,3.18,5.08,4.75,8.16,2.55,4.96,4.09,8.01,4.62,9.14"/>
    <path class="st0" d="M1278.49,489.61c2.1,1.23,4.26,3.12,6.47,5.68,2.22,2.57,3.97,5.24,5.26,8.01.98,2.05,1.69,4.15,2.12,6.27.42,2.14.63,4.61.63,7.42,0,3.99-.48,7.6-1.46,10.82-.97,3.22-2.63,6.41-4.98,9.56-2.34,3.15-4.98,5.74-7.91,7.75l-1.73-1.55c1.94-2.33,3.32-4.34,4.14-6.02.82-1.68,1.5-4.01,2.01-6.98.72-3.93,1.08-8.61,1.08-14.04,0-6.84-.59-12.08-1.76-15.76-1.18-3.66-3.01-6.82-5.47-9.46l1.6-1.7Z"/>
    <path class="st0" d="M1318.58,538.02v-1.67c.57-.24,1.36-.67,2.39-1.27.46-.27.75-.48.88-.66.09-.11.14-.23.16-.36.11-.55.21-2.5.29-5.85.09-3.35.13-7.37.13-12.06,0-6.9-.02-11.16-.07-12.77-.08-4.11-.23-6.45-.42-7.04-.08-.26-.25-.45-.49-.59-.51-.33-2.18-.55-5.01-.66v-2.88c2.77.13,5.93.2,9.49.2,3.97,0,7.74-.07,11.3-.2v2.88c-2.46.11-3.97.31-4.52.6-.24.13-.41.34-.52.63-.11.3-.21,1.65-.31,4.05-.09,2.4-.14,5.44-.14,9.11,0,.39.01,3.55.03,9.46.02,3.12.04,6.22.04,9.28.02,3.07.03,4.93.05,5.59,3.01.13,5.07.19,6.16.19,3.32,0,6.21-.19,8.68-.59.89-.13,1.42-.27,1.6-.43.18-.15.36-.56.56-1.21.44-1.66.86-3.56,1.28-5.7h2.71c-.06.61-.1.97-.1,1.08l-.82,6.62c-.17,2.07-.27,3.32-.29,3.73-.63.17-1.27.29-1.91.36-1.33.11-3.39.16-6.19.16-.4,0-2.96-.06-7.7-.16-3.6-.09-6.11-.13-7.53-.13-2.14,0-5.39.09-9.76.29"/>
    <path class="st0" d="M1361.91,538.02v-2.69c2.62-.09,4.18-.26,4.67-.53.49-.26.83-.7,1-1.3.24-.94.36-3.77.36-8.48v-19.62c0-5.35-.03-8.34-.1-8.97h-4.68c-2.36,0-4.43.08-6.23.22-.72.07-1.13.16-1.23.27-.15.13-.29.51-.4,1.14-.28,1.53-.45,3.24-.49,5.14h-2.72c-.08-4.48-.14-6.99-.17-7.56-.06-.96-.17-2-.32-3.11l.28-.33c1.03.11,2.12.18,3.28.23,1.88.06,5.49.1,10.83.1h13.23c5.5,0,9.18-.04,11.04-.1,1-.04,2.02-.12,3.04-.23l.33.33c-.19,1.33-.31,2.49-.36,3.5-.02.18-.06,2.57-.13,7.17h-2.71c-.05-1.7-.18-3.33-.42-4.87-.13-.79-.28-1.26-.43-1.41-.13-.11-.48-.19-1.05-.23-1.79-.17-3.94-.26-6.45-.26h-4.68c-.06.76-.1,3.75-.1,8.97v19.62c0,4.72.12,7.55.36,8.52.15.56.48.98.98,1.26.5.27,2.06.45,4.68.53v2.69c-4.24-.2-7.8-.29-10.71-.29-3.1,0-6.67.09-10.71.29"/>
    <path class="st0" d="M1399.14,538.02v-1.57c.18-.11.49-.29.93-.52.83-.46,1.59-.94,2.29-1.44.24-2.93.36-7.67.36-14.25v-5.37c0-2.88-.05-7.11-.16-12.68-.07-3.08-.22-5.04-.43-5.89-.06-.2-.15-.36-.26-.46-.17-.18-.45-.31-.82-.4-.37-.09-1.74-.28-4.12-.59v-2.65l11.88.2c1.4,0,4.03-.06,7.89-.17,2.8-.07,5.03-.1,6.72-.1,3.86,0,6.96.24,9.29.71,2.32.47,4.34,1.22,6.07,2.26,1.72,1.04,3.18,2.26,4.37,3.68,1.19,1.42,2.09,2.95,2.71,4.59,1.02,2.75,1.54,5.76,1.54,9.04,0,4.17-.76,7.89-2.29,11.17-1.53,3.27-3.64,6.01-6.31,8.21-2.68,2.21-5.57,3.8-8.7,4.77-3.12.98-6.88,1.46-11.3,1.46l-9.73-.2-9.93.19ZM1412.24,534.03c2.03.31,3.97.46,5.83.46,2.9,0,5.48-.31,7.72-.92,1.66-.46,3.11-1.12,4.36-1.99,1.24-.87,2.44-2.16,3.59-3.87,1.14-1.7,2.04-3.74,2.66-6.09.63-2.36.96-4.9.96-7.63,0-2.49-.32-4.89-.96-7.22-.63-2.32-1.67-4.36-3.1-6.11-1.45-1.75-3.26-3.01-5.47-3.8-2.2-.79-5.54-1.18-10.02-1.18-1.68,0-3.54.14-5.57.42-.22,3.1-.33,8.94-.33,17.52v7.54c0,6.51.1,10.79.33,12.87"/>
  </g>
</svg>