<?xml version="1.0" encoding="UTF-8"?>
<svg id="Layer_1" xmlns="http://www.w3.org/2000/svg" version="1.1" viewBox="0 0 1451.34 1451.34">
  <!-- Generator: Adobe Illustrator 30.1.0, SVG Export Plug-In . SVG Version: 2.1.1 Build 136)  -->
  <defs>
    <style>
      .st0 {
        fill: #fff;
      }
    </style>
  </defs>
  <path class="st0" d="M335.73,523.55c50.64-50.63,109.61-90.37,175.22-118.17,68.06-28.75,140.28-43.36,214.73-43.36s146.65,14.61,214.64,43.36c65.68,27.8,124.68,67.54,175.3,118.17,50.63,50.66,90.36,109.64,118.14,175.29,4.19,9.96,8.11,19.99,11.74,30.05V7.91H205.84v721.05c3.63-10.12,7.51-20.16,11.7-30.12,27.78-65.66,67.54-124.63,118.19-175.29"/>
  <path class="st0" d="M1213.91,707.26c-26.71-63.12-64.91-119.78-113.57-168.43-48.66-48.66-105.34-86.86-168.4-113.55-65.37-27.62-134.76-41.65-206.26-41.65s-140.92,14.03-206.25,41.65c-63.13,26.69-119.79,64.9-168.43,113.55-48.68,48.66-86.91,105.31-113.57,168.43-27.63,65.28-41.65,134.72-41.65,206.26s14.02,140.9,41.65,206.26c26.66,63.08,64.89,119.69,113.57,168.4,48.64,48.67,105.3,86.8,168.43,113.56,65.33,27.63,134.71,41.68,206.25,41.68s140.9-14.04,206.26-41.68c63.06-26.77,119.74-64.9,168.4-113.56,48.66-48.7,86.86-105.36,113.57-168.4,27.61-65.37,41.65-134.73,41.65-206.26s-14.04-140.98-41.65-206.26M1217.79,864.64c-1.6,5.79-2.88,17.7-3.68,24.6h-6.27l-.8-13.82c-7.91-8.24-18-11.09-28.98-11.09-26.66,0-40.79,18.98-40.79,44.38,0,29.39,16.99,50.61,47.39,50.61,9.49,0,22.49-3.38,30.71-8.22l1.93,1.96-3.56,7.91c-11.08,6.76-24.11,8.82-36.93,8.82-36.68,0-63.71-20.57-63.71-59.01s30.08-55.44,64.33-55.44c13.18,0,23.92,1.08,39.39,7.53l.95,1.77ZM674.6,407.78c-64.36,21.35-110.8,82.05-110.8,153.61,0,89.39,72.48,161.85,161.88,161.85s161.85-72.45,161.85-161.85c0-71.55-46.48-132.26-110.84-153.66,198.78,19.93,364.14,154.78,428.4,336.91-324.23,92.16-634.62,92.16-958.87-.02,64.32-182.07,229.68-316.91,428.38-336.84M1068.38,958.38c.65,1.25,2.44,1.9,6.62,2.28l5.93.44v6.43c-6.6-.17-15.43-.49-24.9-.49s-18.48.32-25.11.49v-6.43l5.97-.44c4.18-.38,5.91-1.03,6.58-2.28.96-1.96,1.14-6.28,1.14-13.01v-65.61c0-6.74-.18-11.09-1.14-13.01-.67-1.29-2.4-1.97-6.58-2.26l-5.97-.47v-6.46c6.63.16,15.47.48,25.11.48s18.31-.32,24.9-.48v6.46l-5.93.47c-4.18.29-5.97.97-6.62,2.26-.95,1.92-1.12,6.27-1.12,13.01v65.61c0,6.73.17,11.05,1.12,13.01M964.55,958.38c.62,1.25,2.39,1.9,6.58,2.28l5.93.44v6.43c-6.61-.17-15.45-.49-24.94-.49s-18.44.32-25.06.49v-6.43l5.97-.44c4.16-.38,5.9-1.03,6.55-2.28,1-1.96,1.13-6.28,1.13-13.01v-77.86h-18.79c-4.37,0-8.84,0-10.01,1.47-.59.82-1.24,2.13-1.39,3.84l-.83,11.09h-6.43c-.32-10.4-.8-17.85-2.11-25.53l1-.82c16.89.16,33.6.48,49.87.48s33.06-.32,49.95-.48l1,.82c-1.31,7.68-1.77,15.12-2.07,25.53h-6.48l-.81-11.09c-.19-1.72-.78-3.03-1.42-3.84-1.17-1.47-5.63-1.47-9.98-1.47h-18.86v77.86c0,6.73.19,11.05,1.19,13.01M860.81,969l-1.14.65-13.18-2.11c-6.62-7.4-13.37-14.93-19.59-22.36l-52.15-62.66h-.29v62.86c0,6.73.14,11.05,1.12,13.01.8,1.6,2.4,2.4,6.62,2.73l5.93.44v5.98c-6.13-.17-12.22-.49-18.36-.49s-12.39.32-18.48.49v-5.98l5.95-.44c4.19-.32,5.83-1.13,6.62-2.73.94-1.96,1.11-6.28,1.11-13.01v-65.61c0-6.74-.17-11.09-1.11-13.01-.79-1.65-2.43-2.41-6.62-2.73l-5.95-.5v-5.96c6.44.16,12.87.48,19.29.48,4.51,0,9-.32,13.5-.48,5.45,7.08,10.8,14.65,16.57,21.36l50.17,58.58v-57.74c0-6.74-.13-11.09-1.15-13.01-.79-1.65-2.38-2.41-6.56-2.73l-5.92-.5v-5.96c6.09.16,12.33.48,18.43.48s12.23-.32,18.36-.48v5.96l-5.96.5c-4.18.31-5.75,1.08-6.56,2.73-1.02,1.92-1.18,6.27-1.18,13.01v73.02c0,5.6.36,11.35.53,16.22M684.22,952.25l-7.22-18.33h-40.39l-6.73,18.04c-2.25,6.1.94,9.02,3.86,9.15l8.05.44v5.98c-7.72-.17-13.5-.49-18.23-.49s-10.37.32-18.1.49v-5.98l4.82-.44c4.18-.44,7.05-4.97,9-9.66l29.12-70.45,4.18-11.06,2.52-6.57,2.45-6.58h11.41l41.64,97.25c1.75,4.02,3.88,6.43,8.82,7.08l3.89.44v5.98c-10.82-.17-18.66-.49-24.92-.49s-14.36.32-24.98.49v-5.98l8.59-.44c2.52-.13,4.3-3.7,2.21-8.87M503.18,866.76c-.62-1.29-2.4-1.97-6.61-2.26l-5.91-.47v-6.46c6.58.16,15.45.48,25.06.48s18.34-.32,24.9-.48v6.46l-5.93.47c-4.17.29-5.96.97-6.63,2.26-.94,1.92-1.12,6.27-1.12,13.01v77.98c6.78.31,13.68.49,20.6.49,7.39,0,19.29-1.45,19.61-2.76l3.74-16.39h6.27l-1.83,26.69-.74,1.26c-10.45.83-29.11.83-39.58.49-6.58-.17-13.19-.49-19.76-.49s-13.36.32-19.29.49v-3.66l5.14-2.89c2.6-1.47,3.24-4.19,3.24-9.2v-72.01c0-6.74-.18-11.09-1.15-13.01M424.22,958.38c.61,1.25,2.41,1.9,6.61,2.28l5.91.44v6.43c-6.57-.17-15.44-.49-24.94-.49s-18.44.32-25.05.49v-6.43l5.95-.44c4.2-.38,5.95-1.03,6.62-2.28.95-1.96,1.12-6.28,1.12-13.01v-77.86h-18.85c-4.36,0-8.82,0-10,1.47-.61.82-1.25,2.13-1.42,3.84l-.77,11.09h-6.45c-.31-10.4-.79-17.85-2.08-25.53l.94-.82c16.9.16,33.64.48,49.85.48s33.13-.32,50.04-.48l.94.82c-1.3,7.68-1.75,15.12-2.11,25.53h-6.38l-.82-11.09c-.17-1.72-.77-3.03-1.47-3.84-1.12-1.47-5.57-1.47-9.96-1.47h-18.83v77.86c0,6.73.16,11.05,1.15,13.01M311.5,952.25l-7.26-18.33h-40.37l-6.74,18.04c-2.23,6.1.96,9.02,3.88,9.15l8.01.44v5.98c-7.72-.17-13.49-.49-18.2-.49s-10.39.32-18.12.49v-5.98l4.79-.44c4.19-.44,7.1-4.97,9-9.66l29.14-70.45,4.19-11.06,2.56-6.57,2.41-6.58h11.38l41.65,97.25c1.75,4.02,3.88,6.43,8.84,7.08l3.86.44v5.98c-10.74-.17-18.63-.49-24.93-.49s-14.3.32-24.88.49v-5.98l8.49-.44c2.55-.13,4.36-3.7,2.27-8.87M725.68,1421.79c-222.18,0-411.47-143.22-480.43-342.17,324.89-92.51,635.89-92.53,960.84,0-69.01,198.96-258.29,342.17-480.42,342.17"/>
  <polygon class="st0" points="640.49 924.96 673.31 924.96 656.61 884.09 640.49 924.96"/>
  <polygon class="st0" points="267.73 924.96 300.54 924.96 283.83 884.09 267.73 924.96"/>
</svg>