<?xml version="1.0" encoding="UTF-8"?>
<svg id="Layer_1" xmlns="http://www.w3.org/2000/svg" version="1.1" viewBox="0 0 1451.34 620.79">
  <!-- Generator: Adobe Illustrator 30.1.0, SVG Export Plug-In . SVG Version: 2.1.1 Build 136)  -->
  <defs>
    <style>
      .st0 {
        fill: #fff;
      }
    </style>
  </defs>
  <g>
    <path class="st0" d="M613.7,148.85c14.54-14.54,31.47-25.95,50.31-33.93,19.54-8.26,40.28-12.45,61.66-12.45s42.11,4.19,61.63,12.45c18.86,7.98,35.8,19.39,50.34,33.93,14.54,14.55,25.94,31.48,33.92,50.33,1.2,2.86,2.33,5.74,3.37,8.63V.78h-298.53v207.05c1.04-2.9,2.16-5.79,3.36-8.65,7.98-18.85,19.39-35.79,33.94-50.33"/>
    <path class="st0" d="M865.86,201.6c-7.67-18.12-18.64-34.39-32.61-48.36-13.97-13.97-30.25-24.94-48.35-32.61-18.77-7.93-38.69-11.96-59.23-11.96s-40.46,4.03-59.22,11.96c-18.13,7.67-34.4,18.64-48.36,32.61-13.98,13.97-24.95,30.24-32.61,48.36-7.93,18.75-11.96,38.68-11.96,59.23s4.03,40.46,11.96,59.23c7.65,18.11,18.63,34.37,32.61,48.35,13.97,13.97,30.24,24.92,48.36,32.61,18.76,7.93,38.68,11.97,59.22,11.97s40.46-4.03,59.23-11.97c18.11-7.69,34.38-18.64,48.35-32.61,13.97-13.99,24.94-30.25,32.61-48.35,7.93-18.77,11.96-38.69,11.96-59.23s-4.03-40.48-11.96-59.23M866.98,246.79c-.46,1.66-.83,5.08-1.06,7.06h-1.8l-.23-3.97c-2.27-2.37-5.17-3.18-8.32-3.18-7.66,0-11.71,5.45-11.71,12.74,0,8.44,4.88,14.53,13.61,14.53,2.73,0,6.46-.97,8.82-2.36l.56.56-1.02,2.27c-3.18,1.94-6.92,2.53-10.6,2.53-10.53,0-18.29-5.91-18.29-16.94s8.64-15.92,18.47-15.92c3.78,0,6.87.31,11.31,2.16l.27.51ZM711,115.6c-18.48,6.13-31.82,23.56-31.82,44.11,0,25.67,20.81,46.47,46.48,46.47s46.47-20.81,46.47-46.47c0-20.55-13.35-37.98-31.83-44.12,57.08,5.72,104.56,44.45,123.01,96.74-93.1,26.46-182.23,26.46-275.34,0,18.47-52.28,65.95-91,123.01-96.72M824.08,273.71c.19.36.7.55,1.9.66l1.7.13v1.85c-1.89-.05-4.43-.14-7.15-.14s-5.31.09-7.21.14v-1.85l1.71-.13c1.2-.11,1.7-.3,1.89-.66.28-.56.33-1.8.33-3.74v-18.84c0-1.94-.05-3.18-.33-3.74-.19-.37-.69-.57-1.89-.65l-1.71-.13v-1.86c1.9.04,4.44.14,7.21.14s5.26-.09,7.15-.14v1.86l-1.7.13c-1.2.08-1.71.28-1.9.65-.27.55-.32,1.8-.32,3.74v18.84c0,1.93.05,3.17.32,3.74M794.26,273.71c.18.36.69.55,1.89.66l1.7.13v1.85c-1.9-.05-4.44-.14-7.16-.14s-5.3.09-7.2.14v-1.85l1.71-.13c1.19-.11,1.69-.3,1.88-.66.29-.56.32-1.8.32-3.74v-22.36h-5.4c-1.26,0-2.54,0-2.87.42-.17.23-.36.61-.4,1.1l-.24,3.18h-1.85c-.09-2.99-.23-5.13-.61-7.33l.29-.23c4.85.04,9.65.14,14.32.14s9.49-.09,14.34-.14l.29.23c-.38,2.2-.51,4.34-.59,7.33h-1.86l-.23-3.18c-.06-.49-.22-.87-.41-1.1-.33-.42-1.62-.42-2.87-.42h-5.42v22.36c0,1.93.06,3.17.34,3.74M764.47,276.76l-.33.19-3.78-.61c-1.9-2.13-3.84-4.29-5.63-6.42l-14.98-17.99h-.08v18.05c0,1.93.04,3.17.32,3.74.23.46.69.69,1.9.78l1.7.13v1.72c-1.76-.05-3.51-.14-5.27-.14s-3.56.09-5.31.14v-1.72l1.71-.13c1.2-.09,1.67-.32,1.9-.78.27-.56.32-1.8.32-3.74v-18.84c0-1.94-.05-3.18-.32-3.74-.23-.47-.7-.69-1.9-.78l-1.71-.14v-1.71c1.85.04,3.69.14,5.54.14,1.29,0,2.58-.09,3.88-.14,1.57,2.03,3.1,4.21,4.76,6.13l14.41,16.82v-16.58c0-1.94-.04-3.18-.33-3.74-.23-.47-.68-.69-1.88-.78l-1.7-.14v-1.71c1.75.04,3.54.14,5.29.14s3.51-.09,5.27-.14v1.71l-1.71.14c-1.2.09-1.65.31-1.88.78-.29.55-.34,1.8-.34,3.74v20.97c0,1.61.1,3.26.15,4.66M713.77,271.94l-2.07-5.26h-11.6l-1.93,5.18c-.65,1.75.27,2.59,1.11,2.63l2.31.13v1.72c-2.22-.05-3.88-.14-5.23-.14s-2.98.09-5.2.14v-1.72l1.38-.13c1.2-.13,2.03-1.43,2.58-2.77l8.36-20.23,1.2-3.18.72-1.89.7-1.89h3.28l11.96,27.93c.5,1.16,1.11,1.85,2.53,2.03l1.12.13v1.72c-3.11-.05-5.36-.14-7.15-.14s-4.12.09-7.17.14v-1.72l2.47-.13c.72-.04,1.24-1.06.63-2.55M661.78,247.4c-.18-.37-.69-.57-1.9-.65l-1.7-.13v-1.86c1.89.04,4.44.14,7.2.14s5.27-.09,7.15-.14v1.86l-1.7.13c-1.2.08-1.71.28-1.9.65-.27.55-.32,1.8-.32,3.74v22.39c1.95.09,3.93.14,5.92.14,2.12,0,5.54-.42,5.63-.79l1.07-4.71h1.8l-.52,7.67-.21.36c-3,.24-8.36.24-11.37.14-1.89-.05-3.79-.14-5.67-.14s-3.84.09-5.54.14v-1.05l1.48-.83c.75-.42.93-1.2.93-2.64v-20.68c0-1.94-.05-3.18-.33-3.74M639.11,273.71c.18.36.69.55,1.9.66l1.7.13v1.85c-1.89-.05-4.43-.14-7.16-.14s-5.3.09-7.19.14v-1.85l1.71-.13c1.21-.11,1.71-.3,1.9-.66.27-.56.32-1.8.32-3.74v-22.36h-5.41c-1.25,0-2.53,0-2.87.42-.18.23-.36.61-.41,1.1l-.22,3.18h-1.85c-.09-2.99-.23-5.13-.6-7.33l.27-.23c4.85.04,9.66.14,14.31.14s9.51-.09,14.37-.14l.27.23c-.37,2.2-.5,4.34-.61,7.33h-1.83l-.23-3.18c-.05-.49-.22-.87-.42-1.1-.32-.42-1.6-.42-2.86-.42h-5.41v22.36c0,1.93.04,3.17.33,3.74M606.74,271.94l-2.08-5.26h-11.59l-1.94,5.18c-.64,1.75.28,2.59,1.11,2.63l2.3.13v1.72c-2.22-.05-3.87-.14-5.23-.14s-2.98.09-5.2.14v-1.72l1.38-.13c1.2-.13,2.04-1.43,2.58-2.77l8.37-20.23,1.2-3.18.73-1.89.69-1.89h3.27l11.96,27.93c.5,1.16,1.11,1.85,2.54,2.03l1.11.13v1.72c-3.08-.05-5.35-.14-7.16-.14s-4.11.09-7.14.14v-1.72l2.44-.13c.73-.04,1.25-1.06.65-2.55M725.67,406.77c-63.8,0-118.15-41.12-137.95-98.25,93.29-26.56,182.59-26.57,275.9,0-19.81,57.13-74.17,98.25-137.95,98.25"/>
    <polygon class="st0" points="701.21 264.11 710.63 264.11 705.84 252.37 701.21 264.11"/>
    <polygon class="st0" points="594.18 264.11 603.6 264.11 598.8 252.37 594.18 264.11"/>
  </g>
  <g>
    <path class="st0" d="M7.91,579.46v-6.31c4.11-.3,6.55-.57,7.34-.79.79-.24,1.46-.59,2.01-1.08.56-.48,1.13-1.24,1.71-2.27.59-1.05,2.32-4.91,5.21-11.61,1.32-3.13,3.85-9.35,7.61-18.62l19.85-48.99,6.7-17.27h10.81l34,79.41,4.72,10.43,3.04,6.99c.51.92.99,1.58,1.44,1.98.46.41.98.72,1.57.92.58.2,2.07.39,4.45.53.76.11,1.87.23,3.35.38v6.31l-21.14-.45-26.7.45v-6.31c6.14-.25,9.59-.6,10.38-1.03.78-.42,1.18-1.14,1.18-2.17,0-1.26-.58-3.35-1.75-6.23l-6.54-16.74h-39.1l-3.34,9.13c-2.54,7-3.8,11.36-3.8,13.08,0,1.22.4,2.07,1.21,2.59,1.22.7,4.85,1.16,10.88,1.37v6.31l-17.57-.46-17.5.46ZM41.53,538.3c4.77.16,10.17.23,16.21.23s11.05-.07,15.67-.23l-16.28-39.25-15.6,39.25Z"/>
    <path class="st0" d="M128.86,521.58v-3.43l6.84-4.34c1.12-.7,2.19-1.46,3.2-2.27v-10.2c0-3.65-.2-8.15-.61-13.54,4.92-1.62,8.12-2.71,9.59-3.27.25-.11,3.47-1.59,9.66-4.49l1.98,1.53-.76,7.91-.53,8.74-.69,13.32h2.51c6.74,0,11.84-.27,15.29-.77l-1.3,10.27c-.6.1-1.17.16-1.67.16l-7.45-.16h-7.38v25.41c0,7.81.08,12.42.23,13.84.2,2.38,1.05,4.25,2.55,5.6,1.5,1.34,3.67,2.02,6.5,2.02,1.73.04,3.11.01,4.15-.12,1.04-.12,2.37-.37,4-.72l1.22,3.12-2.74,2.73c-2.23,2.28-4.19,4.29-5.86,6.02-1.98.86-3.74,1.43-5.28,1.71-1.55.28-3.13.41-4.76.41-5.89,0-10.5-1.5-13.88-4.52-3.37-3.03-5.05-6.79-5.05-11.3l.3-25.11v-18.79h-2.05c-2.79,0-5.46.09-7.99.24"/>
    <path class="st0" d="M224.55,573.37v6.09c-6.35-.41-12.96-.61-19.86-.61s-14.66.2-23.28.61v-6c4.82-.16,7.73-.36,8.75-.61.76-.2,1.34-.49,1.71-.88.38-.38.65-.98.8-1.78.36-1.53.61-6.32.76-14.39.16-8.06.24-15.21.24-21.45v-25.09c0-7.97-.19-15.24-.53-21.84-.21-3.55-.47-5.65-.77-6.31-.2-.36-.48-.64-.83-.83-.61-.4-1.57-.7-2.89-.92-.76-.09-3.04-.23-6.85-.37v-5.63c6.29-.65,11.31-1.38,15.06-2.17,3.76-.78,8.81-2.16,15.14-4.14l1.59.92-.61,15.35c-.26,8.62-.4,19.2-.45,31.72v19.48c0,7.34.06,12.86.14,16.5.2,9.08.36,14.57.47,16.47.09,1.9.27,3.11.53,3.62.15.36.4.66.76.91.45.36,1.25.64,2.35.84.46.09,3.04.28,7.77.53"/>
    <path class="st0" d="M303.42,573.76v5.7c-5.83-.25-11-.38-15.52-.38-4.25,0-8.39.13-12.39.38l-.68-.84.68-9.96c-1.82,1.17-7.2,5.17-16.13,12.02-2.29.5-4.46.76-6.55.76-5.51,0-9.85-1.62-12.96-4.87-3.13-3.24-4.67-7.91-4.67-13.99,0-4.1.7-7.48,2.1-10.12,1.38-2.63,2.88-4.57,4.48-5.82,1.61-1.23,4.08-2.44,7.42-3.61,8.01-2.85,16.78-5.07,26.31-6.7.11-6.03-1.14-10.63-3.73-13.76-2.63-3.15-6.64-4.71-12.01-4.71-2.19,0-4.26.28-6.24.83-.86.25-1.87.76-3.04,1.51l-3.19,7.69-5.18-1.14.46-9.82c3.75-2.54,7.32-4.74,10.73-6.62,3.4-1.87,5.77-3.01,7.14-3.43,1.87-.56,4.52-.83,7.92-.83,5.53,0,10.07.79,13.65,2.4,3.57,1.6,6.21,3.48,7.91,5.66,1.7,2.18,2.87,4.52,3.49,7,.64,2.48.96,5.63.96,9.43,0,1.62-.13,5.86-.38,12.7-.14,4.57-.22,8.3-.22,11.18,0,9.03.25,14.51.77,16.43.2.92.6,1.51,1.21,1.84.81.4,3.38.77,7.68,1.07M275.51,542.72c-4.31.92-8.25,2.02-11.84,3.31-3.57,1.3-6.04,2.89-7.41,4.8-1.37,1.9-2.05,4.3-2.05,7.19,0,3.26.82,5.76,2.47,7.53,1.65,1.78,3.81,2.67,6.5,2.67,2.28,0,4.58-.67,6.89-1.98,2.3-1.33,4.12-2.99,5.43-5.02v-18.49Z"/>
    <path class="st0" d="M398.97,573.6v5.86c-6.91-.36-12.54-.53-16.9-.53-5.02,0-9.38.17-13.08.53l-1.37-1.37c.1-1.06.43-5.44,1-13.16l.37-12.48v-6c0-8.88-.33-14.71-1.02-17.5-.68-2.79-2.08-5.03-4.23-6.73-2.12-1.7-4.97-2.55-8.52-2.55s-6.5.85-8.82,2.55c-2.34,1.7-3.81,3.42-4.42,5.14-.34,1.01-.51,5.06-.45,12.17v12.77c0,3.69.1,8.24.3,13.62.05,2.38.26,3.95.61,4.72.26.56.59.96.98,1.21.61.41,1.81.8,3.57,1.14.61.1,2.75.3,6.4.61v5.86c-5.54-.2-12.3-.3-20.31-.3-9.29,0-16.49.1-21.61.3v-5.86c3.96,0,6.69-.28,8.22-.84.7-.25,1.23-.68,1.59-1.29.5-.97.78-2.79.83-5.48l.31-6.76c.05-1.42.08-3.73.08-6.92v-9.96c0-4.52-.16-9.99-.46-16.43-.14-3.26-.37-5.09-.64-5.52-.28-.44-.73-.75-1.34-.96-.96-.36-3.83-.61-8.59-.76v-5.86c9.23-1.57,15.29-2.74,18.19-3.51,2.89-.76,6.16-1.97,9.81-3.64l2.05.9v12.25l13.84-11.1c1.67-.65,3.08-1.1,4.23-1.33,1.15-.23,2.73-.34,4.75-.34,5.42,0,9.5.61,12.21,1.83,2.71,1.21,5.01,2.93,6.88,5.13,1.89,2.2,3.2,4.52,3.96,6.92.76,2.41,1.15,6.18,1.15,11.3,0,5.77-.06,9.46-.14,11.03-.06.61-.08,1.34-.08,2.2l.08,7.83c.04,8.57.18,13.87.41,15.9.23,2.02.68,3.32,1.37,3.91.68.59,2.19.96,4.53,1.11.85.04,2.28.18,4.26.38"/>
    <path class="st0" d="M405.65,521.58v-3.43l6.85-4.34c1.11-.7,2.18-1.46,3.19-2.27v-10.2c0-3.65-.2-8.15-.6-13.54,4.92-1.62,8.1-2.71,9.58-3.27.25-.11,3.47-1.59,9.66-4.49l1.98,1.53-.76,7.91-.53,8.74-.69,13.32h2.51c6.75,0,11.85-.27,15.29-.77l-1.29,10.27c-.61.1-1.17.16-1.67.16l-7.47-.16h-7.37v25.41c0,7.81.08,12.42.22,13.84.2,2.38,1.05,4.25,2.55,5.6,1.5,1.34,3.67,2.02,6.51,2.02,1.71.04,3.09.01,4.15-.12,1.03-.12,2.36-.37,3.98-.72l1.22,3.12-2.74,2.73c-2.23,2.28-4.19,4.29-5.86,6.02-1.98.86-3.74,1.43-5.28,1.71-1.56.28-3.14.41-4.76.41-5.89,0-10.51-1.5-13.88-4.52-3.37-3.03-5.06-6.79-5.06-11.3l.31-25.11v-18.79h-2.05c-2.79,0-5.46.09-8,.24"/>
    <path class="st0" d="M459.28,579.46v-5.63c5.68-.4,8.93-.85,9.73-1.33.81-.48,1.32-1.38,1.53-2.7.5-2.79.76-9.96.76-21.53,0-15.88-.23-24.89-.69-27.07-.2-1.01-.53-1.67-.98-1.98-1.01-.67-4.46-1.01-10.35-1.06v-5.78c7.67-.81,13.44-1.68,17.35-2.59,3.9-.91,8.16-2.31,12.78-4.18l1.82.98c-.61,7.92-.92,15.34-.92,22.29v25.87c0,8.82.21,14.05.61,15.68.2.91.61,1.51,1.22,1.82,1.37.66,4.69,1.09,9.96,1.29v5.94c-7.2-.2-15.04-.3-23.5-.3-7.3,0-13.75.1-19.33.3M480.12,469.32c3.24,0,5.99,1.14,8.26,3.41,2.25,2.29,3.37,5.02,3.37,8.22s-1.13,6.01-3.37,8.29c-2.27,2.28-5.02,3.43-8.26,3.43s-5.94-1.14-8.21-3.43c-2.28-2.28-3.43-5.05-3.43-8.29s1.13-5.94,3.39-8.22c2.26-2.27,5.01-3.41,8.25-3.41"/>
    <path class="st0" d="M571.4,569.42l-3.34,7.39c-4.37,2.18-7.9,3.61-10.61,4.29-2.72.69-5.98,1.02-9.78,1.02-8.31,0-15.06-1.62-20.23-4.86-5.18-3.24-9.1-7.89-11.79-13.92-1.92-4.27-2.88-9.94-2.88-17.04,0-5.32.5-9.68,1.51-13.07,1.02-3.4,2.46-6.4,4.34-8.98,1.26-1.73,2.96-3.35,5.09-4.88l11.72-7.37c3.96-2.54,6.67-4.05,8.14-4.57,2.43-.91,5.61-1.37,9.5-1.37,3.26,0,6.29.27,9.1.8,2.81.53,5.41,1.33,7.8,2.4l.76,1.29-1.9,12.41c-.16,1.1-.41,4.61-.76,10.5h-5.94c-.31-4.52-.68-7.87-1.15-10.04-1.06-1.73-2.71-3.14-4.94-4.23-2.23-1.09-4.97-1.64-8.21-1.64-3.87,0-6.93.72-9.21,2.13-2.28,1.42-3.96,3.82-5.02,7.14-1.08,3.36-1.61,7.41-1.61,12.18,0,6.39,1.09,12.1,3.28,17.15,2.18,5.05,5.05,8.75,8.63,11.1,3.57,2.35,7.97,3.54,13.19,3.54,2.38,0,4.64-.27,6.78-.8,2.12-.53,4.16-1.3,6.09-2.31l1.44,1.75Z"/>
    <path class="st0" d="M687.78,542.49h-6.09c-.14-6.34-.59-10.16-1.29-11.49-.36-.65-1.28-1.13-2.74-1.44-3.76-.66-9.68-1-17.8-1-1.17,0-3.19.03-6.09.08v8.43c0,12.02.14,20.46.41,25.31.28,4.84.68,7.67,1.18,8.48.36.56,1,1,1.9,1.33.92.33,4.9.74,11.94,1.26v6l-29.81-.53c-4.32,0-11.13.17-20.47.53v-6.31c5.83-.1,9.21-.33,10.12-.69.45-.14.83-.42,1.14-.83.45-.61.81-1.93,1.06-3.95.16-1.17.36-4.84.61-11,.25-6.16.37-10.59.37-13.27v-31.5c0-.7-.22-7.8-.68-21.3-.11-3.91-.39-6.67-.83-8.29-.16-.56-.4-.98-.72-1.26-.33-.28-1.05-.54-2.14-.79-1.09-.26-4.07-.53-8.94-.84v-6.39l27.01.46,36.6-.61c5.11,0,9.96.25,14.52.76l.69,1.06c-.57,2.9-1.05,6.58-1.45,11.03-.41,4.46-.63,8.37-.69,11.72h-6.23c0-1.21-.13-3.96-.38-8.21-.11-2.23-.26-3.57-.45-4.04-.16-.35-.39-.6-.69-.76-.9-.61-3.03-1.21-6.35-1.78-3.32-.59-7.21-.88-11.67-.88-.86,0-3.26.07-7.19.23-3.93.14-6.6.28-8.02.38-.56,5.06-.83,14.22-.83,27.46v10.64c6.5.21,10.88.31,13.17.31,6.59,0,10.75-.31,12.47-.91.65-.2,1.15-.79,1.44-1.74.47-1.28.74-4.16.83-8.68h6.63c-.36,8.63-.55,19.63-.55,33.02"/>
    <path class="st0" d="M707.18,543.56c0-8.62,1.46-15.76,4.41-21.42,2.94-5.64,7.35-9.91,13.23-12.78,5.89-2.86,12.73-4.29,20.54-4.29,11.72,0,20.63,3.07,26.74,9.21,6.11,6.14,9.17,15.13,9.17,26.99,0,6.86-.89,12.79-2.66,17.8-1.78,5.02-4.17,9.07-7.16,12.14-2.99,3.07-6.14,5.38-9.43,6.96-5.63,2.63-11.97,3.94-19.01,3.94-11.47,0-20.3-3.25-26.52-9.76-6.22-6.52-9.31-16.11-9.31-28.79M728.25,539.9c0,13.5,1.98,23.1,5.94,28.84,2.63,3.8,6.38,5.7,11.25,5.7,4.16,0,7.45-1.45,9.88-4.33,3.26-3.86,4.87-11.3,4.87-22.37,0-7.75-.65-14.41-1.94-19.96-1.3-5.55-3.2-9.42-5.71-11.6-2.51-2.18-5.54-3.27-9.09-3.27-3.04,0-5.7.8-7.98,2.39-2.28,1.59-4.06,4.29-5.33,8.06-1.27,3.77-1.9,9.29-1.9,16.54"/>
    <path class="st0" d="M835.65,573.6v5.86c-5.72-.25-12.12-.38-19.17-.38-7.87,0-16.02.13-24.5.38v-5.86c3.96,0,6.7-.28,8.22-.84.7-.25,1.23-.68,1.59-1.29.5-.97.78-2.79.83-5.48l.31-6.76c.05-1.42.07-3.73.07-6.92v-9.96c0-4.52-.14-9.99-.45-16.43-.15-3.26-.37-5.09-.64-5.52-.29-.44-.73-.75-1.34-.96-.96-.36-3.83-.61-8.6-.76v-5.86c9.23-1.57,15.29-2.74,18.19-3.51,2.88-.76,6.16-1.97,9.8-3.64l2.06.9-.14,15.37c3.29-3.4,5.83-6.21,7.6-8.43,2.64-3.15,4.62-5.15,5.94-6.02,1.82-1.22,4.24-1.82,7.23-1.82,1.88,0,3.57.31,5.1.9l-.47,10.8c-.14,5.89-.28,9.26-.38,10.12l-3.19,1c-1.26-1.69-2.48-2.85-3.65-3.51-1.87-1.06-3.93-1.6-6.16-1.6-2.99,0-5.57.93-7.72,2.78-2.15,1.85-3.43,3.73-3.84,5.66-.2,1.11-.31,5.41-.31,12.86v7.61l.16,10.35c.04,3.91.18,6.3.41,7.19.23.88.74,1.58,1.56,2.08.81.51,2.56.87,5.26,1.06l6.23.61Z"/>
    <path class="st0" d="M878.4,580.07c-.2-.67-.65-2.56-1.37-5.71-.41-1.71-1.04-4.13-1.9-7.23l-6.39-22.66c-2.7-9.49-4.41-15.52-5.18-18.11-1.82-6.03-3.1-9.58-3.86-10.65-.31-.45-.8-.78-1.45-.98-1.06-.41-3.7-.66-7.92-.76v-6c6.39.14,13.23.21,20.54.21s14.71-.07,21.6-.21v6c-5.42,0-8.66.31-9.72.92-.66.35-1,.96-1,1.82,0,.97.25,2.43.76,4.41l9.2,34.6,13.24-29.05,4.56-9.88,4.57-10.73h7.75l21.52,49.67,7.53-22.36c1.12-3.49,2.23-7.43,3.35-11.78.5-2.25.76-3.7.76-4.42,0-1.21-.39-1.98-1.17-2.31-.8-.33-3.95-.62-9.47-.88v-6.01c5.42.14,10.47.21,15.13.21s9.93-.07,16.12-.21v6.01c-3.6.2-5.53.33-5.78.37-.72.21-1.36.56-1.94,1.03-.59.48-1.05,1.05-1.41,1.71-.36.65-1.62,3.92-3.8,9.8-.87,2.28-2.36,6.5-4.49,12.63l-4.04,12.02-1.2,3.42c-.62,1.78-2.24,6.72-4.88,14.84l-3.04,10.27h-12.4c-4.82-11.57-7.61-18.22-8.37-20l-12.25-27.92c-4.41,9.12-7.68,16.08-9.81,20.81-2.13,4.74-4,9.02-5.62,12.82l-5.78,14.31h-12.41Z"/>
    <path class="st0" d="M1051.98,573.76v5.7c-5.83-.25-11-.38-15.52-.38-4.26,0-8.39.13-12.39.38l-.69-.84.69-9.96c-1.84,1.17-7.21,5.17-16.12,12.02-2.29.5-4.46.76-6.55.76-5.53,0-9.84-1.62-12.96-4.87-3.13-3.24-4.68-7.91-4.68-13.99,0-4.1.69-7.48,2.09-10.12,1.39-2.63,2.9-4.57,4.49-5.82,1.59-1.23,4.06-2.44,7.41-3.61,8.01-2.85,16.79-5.07,26.33-6.7.09-6.03-1.14-10.63-3.73-13.76-2.63-3.15-6.64-4.71-12.02-4.71-2.18,0-4.25.28-6.23.83-.86.25-1.88.76-3.04,1.51l-3.2,7.69-5.16-1.14.45-9.82c3.76-2.54,7.33-4.74,10.74-6.62,3.38-1.87,5.78-3.01,7.15-3.43,1.87-.56,4.51-.83,7.9-.83,5.53,0,10.08.79,13.66,2.4,3.57,1.6,6.22,3.48,7.92,5.66,1.7,2.18,2.86,4.52,3.49,7,.64,2.48.96,5.63.96,9.43,0,1.62-.13,5.86-.38,12.7-.15,4.57-.22,8.3-.22,11.18,0,9.03.25,14.51.76,16.43.2.92.61,1.51,1.22,1.84.81.4,3.38.77,7.68,1.07M1024.07,542.72c-4.32.92-8.26,2.02-11.84,3.31-3.57,1.3-6.04,2.89-7.41,4.8-1.37,1.9-2.06,4.3-2.06,7.19,0,3.26.82,5.76,2.47,7.53,1.65,1.78,3.83,2.67,6.51,2.67,2.28,0,4.58-.67,6.88-1.98,2.31-1.33,4.12-2.99,5.44-5.02v-18.49h0Z"/>
    <path class="st0" d="M1103.94,573.6v5.86c-5.74-.25-12.13-.38-19.17-.38-7.87,0-16.02.13-24.5.38v-5.86c3.96,0,6.7-.28,8.22-.84.7-.25,1.23-.68,1.59-1.29.5-.97.78-2.79.84-5.48l.31-6.76c.04-1.42.07-3.73.07-6.92v-9.96c0-4.52-.15-9.99-.45-16.43-.15-3.26-.37-5.09-.65-5.52-.28-.44-.72-.75-1.32-.96-.96-.36-3.83-.61-8.6-.76v-5.86c9.23-1.57,15.29-2.74,18.18-3.51,2.88-.76,6.16-1.97,9.8-3.64l2.06.9-.15,15.37c3.29-3.4,5.83-6.21,7.6-8.43,2.64-3.15,4.61-5.15,5.94-6.02,1.82-1.22,4.23-1.82,7.23-1.82,1.87,0,3.57.31,5.09.9l-.46,10.8c-.15,5.89-.28,9.26-.38,10.12l-3.19,1c-1.28-1.69-2.49-2.85-3.65-3.51-1.87-1.06-3.93-1.6-6.16-1.6-2.99,0-5.56.93-7.72,2.78-2.15,1.85-3.44,3.73-3.84,5.66-.2,1.11-.31,5.41-.31,12.86v7.61l.14,10.35c.06,3.91.2,6.3.43,7.19.22.88.74,1.58,1.56,2.08.81.51,2.56.87,5.25,1.06l6.24.61Z"/>
    <path class="st0" d="M1207.46,573.99v5.47l-15.97-.22-13.7.22-.68-.61.37-6,.16-6.24c-3.5,2.95-7.33,6.24-11.49,9.9-1.61,1.51-3.21,2.81-4.79,3.88-1.93.76-4.47,1.14-7.68,1.14-8.42,0-15.4-3.08-20.92-9.25-5.53-6.16-8.29-14.59-8.29-25.29,0-5.94.81-11.24,2.43-15.9,1.22-3.55,2.65-6.29,4.26-8.21,1.17-1.42,4.57-4.12,10.23-8.07,5.66-3.96,9.71-6.4,12.17-7.35,2.47-.93,5.65-1.41,9.55-1.41,2.43,0,4.45.19,6.04.53,1.61.36,4.34,1.3,8.27,2.81.14-2.94.22-6.06.22-9.35,0-3.85-.13-8.52-.39-14-.1-2.63-.38-4.28-.84-4.94-.36-.5-.87-.83-1.51-.98-.67-.16-3.78-.31-9.37-.47v-5.62c10.8-1.06,20.82-3.28,30.05-6.62l1.98,1.13c-.62,13.59-.95,21.58-1,23.96-.14,13.23-.22,31.78-.22,55.61v7.06c0,3.45.13,7.19.39,11.19.14,2.84.4,4.58.76,5.21.36.64.94,1.11,1.75,1.41.81.31,3.54.64,8.21,1M1177.43,525.38c-2.8-3.35-5.08-5.53-6.85-6.55-3.35-1.92-7.03-2.88-11.03-2.88-3.5,0-6.35.85-8.56,2.54-2.21,1.7-3.85,4.46-4.94,8.27-1.1,3.79-1.65,8.18-1.65,13.15,0,9.23,1.98,16.35,5.94,21.37,2.94,3.71,6.9,5.55,11.86,5.55,3.76,0,7.04-1.06,9.86-3.19,2.81-2.13,4.49-4.18,5.02-6.16.53-1.98.8-8.01.8-18.11l-.45-13.98Z"/>
    <path class="st0" d="M1216.59,579.46v-5.63c5.69-.4,8.93-.85,9.74-1.33.81-.48,1.32-1.38,1.53-2.7.5-2.79.76-9.96.76-21.53,0-15.88-.23-24.89-.69-27.07-.2-1.01-.53-1.67-.99-1.98-1.01-.67-4.46-1.01-10.35-1.06v-5.78c7.67-.81,13.44-1.68,17.35-2.59,3.91-.91,8.16-2.31,12.78-4.18l1.82.98c-.61,7.92-.91,15.34-.91,22.29v25.87c0,8.82.21,14.05.61,15.68.21.91.61,1.51,1.22,1.82,1.37.66,4.69,1.09,9.96,1.29v5.94c-7.2-.2-15.04-.3-23.5-.3-7.31,0-13.75.1-19.33.3M1237.43,469.32c3.25,0,6,1.14,8.26,3.41,2.25,2.29,3.37,5.02,3.37,8.22s-1.13,6.01-3.37,8.29c-2.26,2.28-5.01,3.43-8.26,3.43s-5.93-1.14-8.21-3.43c-2.28-2.28-3.43-5.05-3.43-8.29s1.13-5.94,3.39-8.22c2.25-2.27,5-3.41,8.25-3.41"/>
    <path class="st0" d="M1355.18,573.6v5.86c-6.9-.36-12.53-.53-16.88-.53-5.02,0-9.38.17-13.09.53l-1.37-1.37c.1-1.06.42-5.44,1-13.16l.37-12.48v-6c0-8.88-.34-14.71-1.02-17.5-.69-2.79-2.1-5.03-4.23-6.73-2.13-1.7-4.97-2.55-8.52-2.55s-6.5.85-8.82,2.55c-2.34,1.7-3.81,3.42-4.42,5.14-.34,1.01-.5,5.06-.45,12.17v12.77c0,3.69.1,8.24.3,13.62.06,2.38.26,3.95.61,4.72.25.56.59.96.98,1.21.61.41,1.81.8,3.57,1.14.61.1,2.75.3,6.39.61v5.86c-5.53-.2-12.29-.3-20.31-.3-9.27,0-16.47.1-21.6.3v-5.86c3.96,0,6.69-.28,8.22-.84.7-.25,1.23-.68,1.59-1.29.51-.97.78-2.79.84-5.48l.31-6.76c.06-1.42.07-3.73.07-6.92v-9.96c0-4.52-.15-9.99-.46-16.43-.15-3.26-.37-5.09-.63-5.52-.29-.44-.73-.75-1.34-.96-.96-.36-3.83-.61-8.59-.76v-5.86c9.23-1.57,15.29-2.74,18.18-3.51,2.88-.76,6.16-1.97,9.8-3.64l2.06.9v12.25l13.84-11.1c1.67-.65,3.08-1.1,4.23-1.33,1.14-.23,2.72-.34,4.75-.34,5.42,0,9.5.61,12.21,1.83,2.71,1.21,5.01,2.93,6.88,5.13,1.87,2.2,3.2,4.52,3.96,6.92.76,2.41,1.15,6.18,1.15,11.3,0,5.77-.06,9.46-.16,11.03-.04.61-.07,1.34-.07,2.2l.07,7.83c.05,8.57.2,13.87.42,15.9.22,2.02.68,3.32,1.37,3.91.68.59,2.19.96,4.53,1.11.85.04,2.27.18,4.25.38"/>
    <path class="st0" d="M1373.45,561.74l10.56-7.68c-3.75-1.38-6.75-2.96-9.01-4.75-2.26-1.8-4.05-4.17-5.41-7.12-1.34-2.94-2-6.18-2-9.74,0-4.81,1.23-9.31,3.72-13.49,2.48-4.18,6.38-7.52,11.68-10,5.3-2.49,11.5-3.74,18.6-3.74,4.77,0,9.17.54,13.21,1.64,4.03,1.1,7.41,2.71,10.15,4.84,2.94.14,4.97.23,6.09.23,1.53,0,5.66-.14,12.41-.46l-1.06,9.35h-12.02c.65,2.54.98,5,.98,7.39,0,5.42-1.45,10.21-4.33,14.37-2.89,4.16-6.96,7.34-12.21,9.58-5.25,2.24-10.81,3.35-16.7,3.35-1.58,0-3.78-.12-6.61-.37-1.58.9-2.76,1.98-3.57,3.23-.82,1.25-1.22,2.39-1.22,3.45,0,.92.34,1.78,1.02,2.59.69.81,1.64,1.36,2.86,1.59,1.67.36,5.85.55,12.55.55l18.7-.47c5.49,0,9.71.64,12.71,1.9,2.99,1.28,5.22,3.2,6.7,5.79,1.46,2.58,2.2,6.01,2.2,10.27,0,6.34-1.5,12.06-4.49,17.19-3,5.12-7.48,9.32-13.47,12.62-7.56,4.11-16.55,6.16-27.01,6.16-8.21,0-14.9-1.14-20.07-3.43-5.16-2.27-8.81-4.99-10.88-8.13-2.09-3.15-3.12-6.57-3.12-10.27,0-2.14.33-4.07.99-5.8.65-1.71,1.41-3.02,2.27-3.88.87-.85,2.57-2.02,5.1-3.49,4.87-2.74,7.59-4.24,8.14-4.49-2.74-.31-5.21-1.29-7.38-2.96-1.98-1.82-2.96-3.91-2.96-6.24,0-1.26.25-2.68.76-4.25.71-2.23,1.42-4.01,2.14-5.33M1389.33,581.28c-4.16,2.65-6.93,5.06-8.33,7.27-1.39,2.2-2.08,4.67-2.08,7.42,0,4.61,1.88,8.46,5.66,11.56,3.78,3.09,9.44,4.64,17,4.64s13.96-1.85,18.15-5.55c4.18-3.7,6.27-8.39,6.27-14.06,0-2.74-.41-4.84-1.25-6.29-.84-1.44-2.02-2.58-3.53-3.42-1.53-.83-3.63-1.33-6.32-1.45-2.68-.13-8.9-.19-18.62-.19-1.78,0-4.09.03-6.94.07M1386.68,528.95c0,7,1.22,11.99,3.65,14.99,2.43,2.99,5.59,4.49,9.51,4.49,4.31,0,7.6-1.75,9.89-5.26,1.62-2.53,2.43-6.33,2.43-11.4,0-7.11-1.15-12.07-3.42-14.92-2.28-2.83-5.46-4.25-9.51-4.25s-6.91,1.29-9.16,3.88c-2.26,2.59-3.39,6.75-3.39,12.47"/>
  </g>
</svg>