<?xml version="1.0" encoding="UTF-8"?>
<svg id="Layer_1" xmlns="http://www.w3.org/2000/svg" version="1.1" viewBox="0 0 841.89 311.81">
  <!-- Generator: Adobe Illustrator 30.1.0, SVG Export Plug-In . SVG Version: 2.1.1 Build 136)  -->
  <defs>
    <style>
      .st0 {
        fill: #fff;
      }
    </style>
  </defs>
  <path class="st0" d="M552.78,130.11c0,18.12-4.24,31.11-12.16,39.57-8.15,8.43-21.12,12.95-39.22,12.95-18.4,0-31.35-4.52-39.51-12.96-8.18-8.43-12.14-21.4-12.14-39.56V.89h-34.79v128.65c-.01,27,7.59,47.95,22.93,62.7,14.76,14.17,35.97,21.16,63.51,21.15,27.29,0,48.48-7.28,63.49-21.43h0s0-.01,0-.01c15.07-14.46,22.67-35.41,22.66-62.4V.89h-34.79v129.22Z"/>
  <polygon class="st0" points="688.77 209.37 742.68 129.49 796.59 209.37 839.05 209.37 694.16 1.64 693.64 .89 651.2 .89 721.31 101.68 646.32 209.37 688.77 209.37"/>
  <polygon class="st0" points="824.19 2.63 824.19 .89 789.4 .89 789.4 35.67 824.19 35.67 824.19 2.63"/>
  <polygon class="st0" points="241.8 149.21 241.8 .89 207.3 .89 207.3 170.85 240.98 149.73 241.8 149.21"/>
  <polygon class="st0" points="354.63 179.19 257.49 179.19 255.46 179.19 255.47 179.28 207.3 179.28 207.3 209.37 354.63 209.37 354.63 179.19"/>
  <polygon class="st0" points="38.75 117.5 39.26 117.5 39.26 87.31 38.75 87.31 38.75 31.07 39.26 31.07 39.26 .89 3.97 .89 3.97 209.37 38.75 209.37 38.75 117.5"/>
  <polygon class="st0" points="66.8 116.68 67.31 117.5 147.66 117.5 147.66 87.31 48.38 87.31 66.8 116.68"/>
  <polygon class="st0" points="50.89 .89 69.82 31.08 153.69 31.08 153.69 .89 54.05 .89 50.89 .89"/>
  <path class="st0" d="M11.03,254.97l-8.18,40.08h3.53l2.47-12.67h8.97l2.47,12.67h3.81l-8.07-40.08h-4.99ZM9.46,279.24l3.81-19.9h.17l3.76,19.9h-7.74Z"/>
  <path class="st0" d="M225.11,254.46c-5.72,0-9.31,3.53-9.31,8.86v23.66c0,5.49,3.64,8.58,9.36,8.58,5.33,0,8.58-3.36,8.58-8.24v-4.2h-3.36v3.98c0,2.86-1.74,5.1-5.21,5.1s-5.55-1.91-5.55-5.77v-22.93c0-3.14,1.46-5.77,5.44-5.77,3.59,0,5.33,2.13,5.33,5.21v3.87h3.36v-4.54c0-4.37-3.14-7.79-8.63-7.79Z"/>
  <path class="st0" d="M55.41,265.96c0-6.78-2.86-10.88-9.14-10.88h-8.07v39.97h3.81v-17.83h4.37l5.55,17.83h3.92l-5.94-18.72c3.36-.95,5.49-4.71,5.49-10.37ZM46.33,274.25h-4.32v-15.86h4.09c4.32,0,5.49,3.98,5.49,8.02,0,4.88-1.68,7.85-5.27,7.85Z"/>
  <polygon class="st0" points="117.45 272.74 106.75 272.74 106.75 255.08 102.93 255.08 102.93 295.05 106.75 295.05 106.75 276.27 117.45 276.27 117.45 295.05 121.15 295.05 121.15 255.08 117.45 255.08 117.45 272.74"/>
  <polygon class="st0" points="245.78 258.33 253.46 258.33 253.46 295.05 257.22 295.05 257.22 258.33 264.79 258.33 264.79 255.08 245.78 255.08 245.78 258.33"/>
  <path class="st0" d="M79.34,254.46c-5.72,0-9.31,3.53-9.31,8.86v23.66c0,5.49,3.64,8.58,9.36,8.58,5.33,0,8.58-3.36,8.58-8.24v-4.2h-3.36v3.98c0,2.86-1.74,5.1-5.21,5.1s-5.55-1.91-5.55-5.77v-22.93c0-3.14,1.46-5.77,5.44-5.77,3.59,0,5.33,2.13,5.33,5.21v3.87h3.36v-4.54c0-4.37-3.14-7.79-8.63-7.79Z"/>
  <polygon class="st0" points="191.09 275.71 200.11 275.71 200.11 272.4 191.09 272.4 191.09 258.28 202.3 258.28 202.3 255.08 187.33 255.08 187.33 295.05 202.36 295.05 202.36 291.74 191.09 291.74 191.09 275.71"/>
  <path class="st0" d="M292.69,286.42c.06,3.31-1.51,5.83-5.21,5.83-2.92,0-5.38-1.79-5.38-5.94v-31.22h-3.81v31.78c0,5.94,3.81,8.74,8.91,8.74,5.55,0,9.14-3.53,9.08-9.14v-31.39h-3.59v31.34Z"/>
  <polygon class="st0" points="154.6 258.33 162.28 258.33 162.28 295.05 166.04 295.05 166.04 258.33 173.61 258.33 173.61 255.08 154.6 255.08 154.6 258.33"/>
  <rect class="st0" x="137.06" y="255.08" width="3.81" height="39.97"/>
  <path class="st0" d="M329.23,265.96c0-6.78-2.86-10.88-9.14-10.88h-8.07v39.97h3.81v-17.83h4.37l5.55,17.83h3.92l-5.94-18.72c3.36-.95,5.49-4.71,5.49-10.37ZM320.15,274.25h-4.32v-15.86h4.09c4.32,0,5.49,3.98,5.49,8.02,0,4.88-1.68,7.85-5.27,7.85Z"/>
  <polygon class="st0" points="348.23 275.71 357.25 275.71 357.25 272.4 348.23 272.4 348.23 258.28 359.44 258.28 359.44 255.08 344.47 255.08 344.47 295.05 359.5 295.05 359.5 291.74 348.23 291.74 348.23 275.71"/>
  <path class="st0" d="M742.71,270.27c-2.13-2.47-3.92-4.88-3.92-7.46,0-3.53,1.74-5.27,4.48-5.27s4.15,1.79,4.6,5.89l3.48-.11c-.39-6.5-3.59-8.86-7.9-8.86-5.44,0-8.13,3.76-8.13,8.63,0,3.48,1.74,6.61,4.43,9.64l4.93,5.77c2.24,2.47,3.42,5.27,3.42,7.96,0,2.86-1.12,6-4.71,6-3.25,0-4.76-2.63-5.16-6.61l-3.59.11c.45,6.22,3.53,9.59,8.74,9.59s8.3-3.87,8.3-9.42c0-4.09-1.68-7.4-4.71-10.88l-4.26-4.99Z"/>
  <polygon class="st0" points="710.88 275.71 719.9 275.71 719.9 272.4 710.88 272.4 710.88 258.28 722.09 258.28 722.09 255.08 707.12 255.08 707.12 295.05 722.15 295.05 722.15 291.74 710.88 291.74 710.88 275.71"/>
  <path class="st0" d="M641.89,265.96c0-6.78-2.86-10.88-9.14-10.88h-8.07v39.97h3.81v-17.83h4.37l5.55,17.83h3.92l-5.94-18.72c3.36-.95,5.49-4.71,5.49-10.37ZM632.81,274.25h-4.32v-15.86h4.09c4.32,0,5.49,3.98,5.49,8.02,0,4.88-1.68,7.85-5.27,7.85Z"/>
  <path class="st0" d="M682.97,255.08h-8.97v39.97h8.8c5.16,0,9.03-2.86,9.03-8.8v-23.1c0-5.49-3.87-8.07-8.86-8.07ZM687.96,286.25c0,2.47-1.35,5.49-5.44,5.49h-4.76v-33.41h4.82c3.76,0,5.38,2.35,5.38,5.27v22.65Z"/>
  <polygon class="st0" points="833.67 285.01 833.56 285.01 822.85 255.08 818.65 255.08 818.65 295.05 822.01 295.05 822.01 262.7 822.12 262.7 833.44 295.05 836.98 295.05 836.98 255.08 833.67 255.08 833.67 285.01"/>
  <path class="st0" d="M794.38,277.17h5.49v9.87c0,2.8-1.23,5.21-5.27,5.21-3.53,0-5.49-2.13-5.49-5.72v-22.87c0-3.25,1.46-6,5.44-6,3.42,0,5.33,2.07,5.33,5.05v3.92h3.42v-4.43c0-4.32-3.2-7.79-8.69-7.79-5.77,0-9.31,3.64-9.31,8.97v23.54c0,5.55,3.7,8.63,9.36,8.63s8.8-3.36,8.8-8.24v-13.23h-9.08v3.08Z"/>
  <rect class="st0" x="766.19" y="255.08" width="3.81" height="39.97"/>
  <polygon class="st0" points="476.84 258.33 484.52 258.33 484.52 295.05 488.28 295.05 488.28 258.33 495.85 258.33 495.85 255.08 476.84 255.08 476.84 258.33"/>
  <polygon class="st0" points="513.33 275.71 522.35 275.71 522.35 272.4 513.33 272.4 513.33 258.28 524.54 258.28 524.54 255.08 509.57 255.08 509.57 295.05 524.6 295.05 524.6 291.74 513.33 291.74 513.33 275.71"/>
  <path class="st0" d="M600.2,254.46c-5.38,0-9.42,3.2-9.42,9.14v22.82c0,6.11,3.7,9.14,9.19,9.14s9.42-3.08,9.42-9.42v-23.04c0-5.89-4.04-8.63-9.19-8.63ZM605.58,286.42c0,3.03-1.57,5.77-5.44,5.77s-5.49-2.63-5.49-5.72v-23.15c0-3.03,1.74-5.55,5.38-5.55s5.55,2.19,5.55,5.38v23.26Z"/>
  <rect class="st0" x="425.06" y="255.08" width="3.81" height="39.97"/>
  <polygon class="st0" points="459.81 285.01 459.7 285.01 448.99 255.08 444.79 255.08 444.79 295.05 448.15 295.05 448.15 262.7 448.26 262.7 459.59 295.05 463.12 295.05 463.12 255.08 459.81 255.08 459.81 285.01"/>
  <rect class="st0" x="571.67" y="255.08" width="3.81" height="39.97"/>
  <path class="st0" d="M556.43,265.96c0-6.78-2.86-10.88-9.14-10.88h-8.07v39.97h3.81v-17.83h4.37l5.55,17.83h3.92l-5.94-18.72c3.36-.95,5.49-4.71,5.49-10.37ZM547.35,274.25h-4.32v-15.86h4.09c4.32,0,5.49,3.98,5.49,8.02,0,4.88-1.68,7.85-5.27,7.85Z"/>
  <rect class="st0" x="391.05" y="242.12" width="1.74" height="68.8"/>
</svg>